<?xml version="1.0" encoding="UTF-8" standalone="no"?>
<svg
   xmlns:dc="http://purl.org/dc/elements/1.1/"
   xmlns:cc="http://creativecommons.org/ns#"
   xmlns:rdf="http://www.w3.org/1999/02/22-rdf-syntax-ns#"
   xmlns:svg="http://www.w3.org/2000/svg"
   xmlns="http://www.w3.org/2000/svg"
   viewBox="0 0 234.66667 159.33333"
   height="159.33333"
   width="234.66667"
   xml:space="preserve"
   id="svg2"
   version="1.1"><metadata
     id="metadata8"><rdf:RDF><cc:Work
         rdf:about=""><dc:format>image/svg+xml</dc:format><dc:type
           rdf:resource="http://purl.org/dc/dcmitype/StillImage" /></cc:Work></rdf:RDF></metadata><defs
     id="defs6" /><g
     transform="matrix(1.3333333,0,0,-1.3333333,0,159.33333)"
     id="g10"><g
       transform="scale(0.1)"
       id="g12"><path
         id="path14"
         style="fill:#00adef;fill-opacity:1;fill-rule:nonzero;stroke:none"
         d="M 1760,0 H 0 V 1195 H 1760 V 0" /><path
         id="path16"
         style="fill:#ffffff;fill-opacity:1;fill-rule:nonzero;stroke:none"
         d="m 279.02,165.211 c -61.739,0 -107.36,48.355 -107.36,107.727 0,59.359 45.621,108.871 107.731,108.871 39.32,0 63.695,-14.536 82.964,-35.774 l -29.488,-31.816 c -14.543,15.324 -29.879,25.949 -53.847,25.949 -34.618,0 -59.782,-29.895 -59.782,-66.438 0,-37.351 25.567,-67.238 62.129,-67.238 22.41,0 38.926,10.61 53.863,25.942 l 28.696,-28.301 C 343.492,181.32 319.496,165.211 279.02,165.211" /><path
         id="path18"
         style="fill:#ffffff;fill-opacity:1;fill-rule:nonzero;stroke:none"
         d="m 516.078,258.008 c -12.183,4.707 -29.098,8.242 -47.566,8.242 -29.879,0 -47.578,-12.187 -47.578,-33.418 v -0.789 c 0,-19.66 17.699,-30.676 40.097,-30.676 31.449,0 55.047,17.703 55.047,43.672 z m -1.172,-88.086 v 25.558 c -14.152,-16.921 -35.773,-29.871 -67.23,-29.871 -39.332,0 -73.926,22.391 -73.926,64.071 v 0.808 c 0,44.805 35.785,66.848 84.141,66.848 25.168,0 41.289,-3.574 57.406,-8.664 v 5.09 c 0,28.711 -18.078,44.422 -51.113,44.422 -23.204,0 -40.5,-5.118 -59.375,-12.957 l -12.973,38.101 c 22.809,10.235 45.207,17.297 79.027,17.297 61.332,0 91.231,-32.234 91.231,-87.645 V 169.922 h -47.188" /><path
         id="path20"
         style="fill:#ffffff;fill-opacity:1;fill-rule:nonzero;stroke:none"
         d="m 654.512,234.797 c 0,-18.488 9.429,-25.969 25.539,-25.969 10.625,0 20.066,2.363 29.496,7.102 V 177 c -11.789,-6.68 -25.168,-10.609 -42.848,-10.609 -35,0 -59.765,15.339 -59.765,60.945 V 336.621 H 580.59 V 377.5 h 26.344 v 57.004 h 47.578 V 377.5 h 55.832 V 336.621 H 654.512 V 234.797" /><path
         id="path22"
         style="fill:#ffffff;fill-opacity:1;fill-rule:nonzero;stroke:none"
         d="m 866.801,258.008 c -12.192,4.707 -29.09,8.242 -47.571,8.242 -29.882,0 -47.574,-12.187 -47.574,-33.418 v -0.789 c 0,-19.66 17.692,-30.676 40.117,-30.676 31.446,0 55.028,17.703 55.028,43.672 z m -1.164,-88.086 v 25.558 c -14.153,-16.921 -35.789,-29.871 -67.246,-29.871 -39.313,0 -73.918,22.391 -73.918,64.071 v 0.808 c 0,44.805 35.781,66.848 84.148,66.848 25.164,0 41.289,-3.574 57.395,-8.664 v 5.09 c 0,28.711 -18.086,44.422 -51.106,44.422 -23.211,0 -40.492,-5.118 -59.367,-12.957 l -12.98,38.101 c 22.796,10.235 45.214,17.297 79.035,17.297 61.328,0 91.207,-32.234 91.207,-87.645 V 169.922 h -47.168" /><path
         id="path24"
         style="fill:#ffffff;fill-opacity:1;fill-rule:nonzero;stroke:none"
         d="m 1156.94,210.027 53.47,163.164 h 31.47 l -71.56,-204.863 h -26.36 l -54.65,160.41 -55.03,-160.41 h -26.75 l -71.151,204.863 h 32.238 l 53.473,-163.164 54.65,163.938 h 25.16 l 55.04,-163.938" /><path
         id="path26"
         style="fill:#ffffff;fill-opacity:1;fill-rule:nonzero;stroke:none"
         d="m 1272.91,169.922 v 203.269 h 30.26 V 169.922 h -30.26" /><path
         id="path28"
         style="fill:#ffffff;fill-opacity:1;fill-rule:nonzero;stroke:none"
         d="m 1526.58,169.922 h -36.16 l -72.76,94.773 -41.25,-41.715 v -53.058 h -30.3 v 286.98 h 30.3 V 258.77 l 109.68,114.421 h 37.75 l -85.3,-87.273 88.04,-115.996" /><path
         id="path30"
         style="fill:#ffffff;fill-opacity:1;fill-rule:nonzero;stroke:none"
         d="m 1551.09,169.922 v 203.269 h 30.29 V 169.922 h -30.29" /><path
         id="path32"
         style="fill:#ffffff;fill-opacity:1;fill-rule:nonzero;stroke:none"
         d="m 1307.03,434.512 c 0,-10.496 -8.49,-18.985 -18.99,-18.985 -10.51,0 -19,8.489 -19,18.985 0,10.488 8.49,18.984 19,18.984 10.5,0 18.99,-8.496 18.99,-18.984" /><path
         id="path34"
         style="fill:#ffffff;fill-opacity:1;fill-rule:nonzero;stroke:none"
         d="m 1585.22,434.512 c 0,-10.496 -8.49,-18.985 -18.99,-18.985 -10.49,0 -18.99,8.489 -18.99,18.985 0,10.488 8.5,18.984 18.99,18.984 10.5,0 18.99,-8.496 18.99,-18.984" /></g></g></svg>