<?xml version="1.0" encoding="UTF-8" standalone="no"?>
<svg
   xmlns:dc="http://purl.org/dc/elements/1.1/"
   xmlns:cc="http://creativecommons.org/ns#"
   xmlns:rdf="http://www.w3.org/1999/02/22-rdf-syntax-ns#"
   xmlns:svg="http://www.w3.org/2000/svg"
   xmlns="http://www.w3.org/2000/svg"
   viewBox="0 0 313.32001 79.373337"
   height="79.373337"
   width="313.32001"
   xml:space="preserve"
   id="svg2"
   version="1.1"><metadata
     id="metadata8"><rdf:RDF><cc:Work
         rdf:about=""><dc:format>image/svg+xml</dc:format><dc:type
           rdf:resource="http://purl.org/dc/dcmitype/StillImage" /></cc:Work></rdf:RDF></metadata><defs
     id="defs6" /><g
     transform="matrix(1.3333333,0,0,-1.3333333,0,79.373333)"
     id="g10"><g
       transform="scale(0.1)"
       id="g12"><path
         id="path14"
         style="fill:#212424;fill-opacity:1;fill-rule:nonzero;stroke:none"
         d="m 2182.6,367.43 -42.1,-105.254 -41.19,104.898 -0.14,0.356 h -28.56 l 55.99,-135.328 -25.75,-58 h 28.1 l 81.65,192.543 0.33,0.785 z m -158.61,-35.918 c 7.57,-8.918 11.42,-20.407 11.42,-34.141 0,-13.742 -3.85,-25.234 -11.43,-34.164 -7.92,-9.434 -18.45,-14.019 -32.19,-14.019 -13.61,0 -24.32,4.605 -32.78,14.082 -7.91,8.902 -11.91,20.375 -11.91,34.101 0,13.723 4,25.192 11.9,34.094 8.46,9.476 19.18,14.082 32.79,14.082 13.74,0 24.27,-4.59 32.2,-14.035 z m 10.34,19.586 c -11.05,12.265 -25.8,18.48 -43.88,18.48 -21,0 -38.08,-7.105 -50.8,-21.117 -12.25,-13.738 -18.46,-30.93 -18.46,-51.09 0,-20.172 6.22,-37.363 18.48,-51.113 12.7,-13.996 29.33,-21.098 49.43,-21.098 18.98,0 34.19,6.133 45.23,18.231 v -16.082 h 25.9 V 367.43 h -25.9 z m -150.6,-53.727 c 0,-13.719 -4,-25.195 -11.9,-34.101 -8.46,-9.473 -19.19,-14.082 -32.79,-14.082 -13.74,0 -24.27,4.585 -32.2,14.035 -7.57,8.918 -11.41,20.406 -11.41,34.148 0,13.734 3.84,25.227 11.42,34.156 7.92,9.434 18.45,14.02 32.19,14.02 13.6,0 24.33,-4.606 32.79,-14.078 7.9,-8.91 11.9,-20.379 11.9,-34.098 z m -42,72.207 c -18.97,0 -34.18,-6.137 -45.22,-18.242 V 367.43 H 1770.6 V 174.102 h 25.91 v 69.531 c 11.04,-12.262 25.79,-18.473 43.88,-18.473 21,0 38,7.102 50.5,21.098 12.44,13.742 18.75,30.937 18.75,51.113 0,20.168 -6.3,37.359 -18.74,51.094 -12.51,14.008 -29.06,21.113 -49.17,21.113 z m -115.28,45.957 h -25.91 V 367.43 h -27.4 v -23.492 h 27.4 V 227.309 h 25.91 v 116.629 h 30.9 v 23.492 h -30.9 z m -96.32,-49.91 c -6.75,2.621 -14.88,3.953 -24.15,3.953 -9.47,0 -18.04,-2.41 -25.47,-7.176 -4.92,-3.156 -9.39,-6.836 -13.31,-10.957 v 15.985 h -25.91 V 227.309 h 25.91 v 80.269 c 0,11.141 3.68,20.391 10.94,27.481 7.29,6.961 16.29,10.488 26.76,10.488 10.24,0 18.67,-3.406 25.06,-10.117 6.43,-6.762 9.69,-16.043 9.69,-27.582 v -80.539 h 25.91 v 81.078 c 0,18.629 -5.88,33.863 -17.47,45.265 -5.1,5.286 -11.15,9.313 -17.96,11.973 z m -152.09,-34.113 c 7.58,-8.918 11.42,-20.407 11.42,-34.141 0,-13.742 -3.84,-25.234 -11.43,-34.164 -7.92,-9.434 -18.44,-14.019 -32.19,-14.019 -13.6,0 -24.32,4.605 -32.78,14.082 -7.9,8.902 -11.9,20.375 -11.9,34.101 0,13.723 4,25.192 11.89,34.094 8.46,9.476 19.19,14.082 32.79,14.082 13.75,0 24.27,-4.59 32.2,-14.035 z m 10.35,19.586 c -11.05,12.265 -25.81,18.48 -43.89,18.48 -20.99,0 -38.08,-7.105 -50.79,-21.117 -12.25,-13.738 -18.46,-30.93 -18.46,-51.09 0,-20.172 6.21,-37.363 18.48,-51.113 12.7,-13.996 29.33,-21.098 49.43,-21.098 18.98,0 34.18,6.133 45.23,18.231 v -16.082 h 25.9 V 367.43 h -25.9 z m -166.44,14.527 c -6.75,2.621 -14.88,3.953 -24.15,3.953 -9.47,0 -18.04,-2.41 -25.47,-7.176 -4.92,-3.156 -9.38,-6.836 -13.31,-10.957 v 69.731 h -25.9 V 227.309 h 25.9 v 80.269 c 0,11.141 3.69,20.391 10.94,27.481 7.29,6.961 16.3,10.488 26.77,10.488 10.24,0 18.66,-3.406 25.05,-10.117 6.43,-6.762 9.7,-16.043 9.7,-27.582 v -80.539 h 25.9 v 81.078 c 0,18.629 -5.87,33.863 -17.47,45.265 -5.09,5.286 -11.14,9.313 -17.96,11.973 z m -188.77,-23.859 c 5.59,2.511 12.56,3.781 20.72,3.781 7.94,0 15.06,-2.25 21.15,-6.699 6.15,-4.489 10.7,-10.399 13.53,-17.543 l 0.72,-1.825 h 27.63 l -1.16,3.739 c -4.29,13.797 -12.25,25.047 -23.63,33.457 -11.92,8.562 -26.24,12.902 -42.53,12.902 -20.45,0 -37.35,-7.094 -50.23,-21.09 -12.45,-13.562 -18.76,-30.765 -18.76,-51.117 0,-20.363 6.31,-37.566 18.77,-51.133 12.87,-13.984 29.77,-21.078 50.22,-21.078 16.3,0 30.62,4.348 42.55,12.918 11.38,8.395 19.32,19.645 23.61,33.445 l 1.16,3.731 h -27.63 l -0.72,-1.816 c -2.83,-7.157 -7.38,-13.063 -13.53,-17.551 -6.1,-4.449 -13.21,-6.699 -21.15,-6.699 -14.84,0 -26.59,4.742 -34.95,14.101 -8.24,9.082 -12.42,20.555 -12.42,34.082 0,13.527 4.18,25 12.45,34.102 3.82,4.328 8.6,7.789 14.2,10.293 z m -80.96,23.246 c -10.43,-4.824 -18.44,-11.633 -23.86,-20.274 v 22.692 h -25.91 V 227.309 h 25.91 v 61.996 c 0,14.683 4.13,27.465 12.29,37.996 8.64,11.012 19.5,16.367 33.2,16.367 h 5.3 v 25.91 h -4.22 c -8.82,0 -16.46,-1.535 -22.71,-4.566 z M 872.578,310.996 c 2.035,9.613 6.41,17.606 13.016,23.754 7.832,7.164 17.668,10.797 29.226,10.797 11.559,0 21.387,-3.629 29.211,-10.777 6.606,-6.168 10.989,-14.161 13.028,-23.774 z m 42.242,58.582 c -20.8,0 -37.968,-7.094 -51.031,-21.09 -12.269,-13.386 -18.496,-30.586 -18.496,-51.117 0,-20.379 6.512,-37.586 19.336,-51.156 13.223,-13.969 30.562,-21.055 51.535,-21.055 16.504,0 30.238,3.988 40.82,11.852 10.524,7.832 18.305,18.211 23.133,30.843 l 1.496,3.907 h -27.957 l -0.808,-1.543 c -7.41,-14.156 -19.321,-21.031 -36.414,-21.031 -12.43,0 -22.789,3.886 -30.797,11.562 -7.141,6.832 -11.66,15.469 -13.442,25.68 h 112.153 v 10.941 c 0,20.531 -6.231,37.738 -18.516,51.145 -13.051,13.972 -30.215,21.062 -51.012,21.062 z m -120.027,-4.129 v 0 c -11.887,5.137 -26.668,5.508 -38.566,0.989 -11.766,-4.415 -20.977,-11.52 -27.379,-21.133 -4.262,6.945 -9.793,12.566 -16.446,16.715 -8.047,5.015 -16.922,7.558 -26.379,7.558 -15.918,0 -28.683,-5.531 -37.968,-16.449 v 14.301 h -25.91 V 227.309 h 25.91 v 83.226 c 0,10.949 3.324,19.66 9.875,25.887 6.308,6.141 14.004,9.125 23.527,9.125 8.91,0 16.031,-3.024 21.746,-9.231 5.77,-6.589 8.692,-15.175 8.692,-25.511 v -83.496 h 25.918 v 83.226 c 0,11.106 3.23,19.57 9.878,25.887 6.215,6.058 14.133,9.125 23.516,9.125 8.914,0 16.031,-3.024 21.754,-9.231 5.769,-6.589 8.695,-15.175 8.695,-25.511 v -83.496 h 25.91 v 84.035 c 0,16.801 -5.332,31.027 -15.855,42.301 -4.902,5.093 -10.598,9.066 -16.918,11.804 z M 492.277,310.996 c 2.036,9.613 6.411,17.606 13.008,23.754 7.836,7.164 17.668,10.797 29.235,10.797 11.55,0 21.378,-3.629 29.207,-10.777 6.605,-6.168 10.988,-14.161 13.027,-23.774 z m 42.243,58.582 c -20.809,0 -37.977,-7.094 -51.036,-21.09 -12.273,-13.386 -18.492,-30.586 -18.492,-51.117 0,-20.379 6.504,-37.586 19.332,-51.156 13.223,-13.969 30.567,-21.055 51.535,-21.055 16.504,0 30.235,3.988 40.821,11.852 10.519,7.832 18.308,18.211 23.136,30.843 l 1.493,3.907 h -27.954 l -0.808,-1.543 c -7.414,-14.156 -19.328,-21.031 -36.418,-21.031 -12.43,0 -22.793,3.886 -30.797,11.562 -7.141,6.832 -11.664,15.469 -13.445,25.68 h 112.152 v 10.941 c 0,20.531 -6.226,37.738 -18.516,51.145 -13.046,13.972 -30.21,21.062 -51.003,21.062" /><path
         id="path16"
         style="fill:#87cf32;fill-opacity:1;fill-rule:nonzero;stroke:none"
         d="M 195.188,369.691 V 338.223 H 179.57 c -8.675,0 -15.73,7.054 -15.73,15.738 0,8.676 7.055,15.73 15.73,15.73 z m 0,-112.636 V 225.586 H 179.57 c -8.675,0 -15.73,7.055 -15.73,15.73 0,8.684 7.055,15.739 15.73,15.739 z m 24.843,137.484 v 15.738 c 0,8.676 7.067,15.739 15.742,15.739 H 385.02 c 8.679,0 15.734,-7.063 15.734,-15.739 0,-8.675 -7.055,-15.738 -15.734,-15.738 z m 0,-112.637 v 31.469 h 52.344 c 8.676,0 15.73,-7.055 15.73,-15.73 0,-8.68 -7.054,-15.739 -15.73,-15.739 z M 400.754,185 c 0,-8.68 -7.055,-15.738 -15.734,-15.738 H 235.77 c -8.68,0 -15.739,7.058 -15.739,15.738 v 15.734 H 385.02 c 8.679,0 15.734,-7.058 15.734,-15.734 z M 385.02,225.586 H 220.031 v 31.469 h 52.344 c 22.379,0 40.578,18.207 40.578,40.586 0,22.379 -18.199,40.582 -40.578,40.582 h -52.344 v 31.468 H 385.02 c 22.378,0 40.582,18.207 40.582,40.586 0,22.379 -18.204,40.582 -40.582,40.582 H 235.773 c -22.378,0 -40.585,-18.203 -40.585,-40.582 V 394.539 H 179.57 c -22.375,0 -40.582,-18.203 -40.582,-40.578 0,-22.379 18.207,-40.59 40.582,-40.59 h 15.618 V 281.902 H 179.57 c -22.375,0 -40.582,-18.207 -40.582,-40.586 0,-22.371 18.207,-40.582 40.582,-40.582 h 15.618 V 185 c 0,-22.375 18.203,-40.582 40.582,-40.582 h 149.25 c 22.378,0 40.582,18.207 40.582,40.582 0,22.379 -18.204,40.586 -40.582,40.586" /></g></g></svg>