<?xml version="1.0" encoding="UTF-8"?>
<svg width="180px" height="130px" viewBox="0 0 180 130" version="1.1" xmlns="http://www.w3.org/2000/svg" xmlns:xlink="http://www.w3.org/1999/xlink" style="background: #FFFFFF;">
    <!-- Generator: Sketch 49.3 (51167) - http://www.bohemiancoding.com/sketch -->
    <title>questers-logo</title>
    <desc>Created with Sketch.</desc>
    <defs></defs>
    <g id="questers-logo" stroke="none" stroke-width="1" fill="none" fill-rule="evenodd">
        <g id="Group" transform="translate(15.000000, 42.000000)" fill="#222221">
            <path d="M10.6678899,26.9009174 L8.53211009,24.8394495 C8.40825688,24.7396789 8.40825688,24.5655963 8.53211009,24.3922018 L10.5192661,22.3307339 C10.6678899,22.1821101 10.8419725,22.1821101 10.9665138,22.3059633 L12.8786697,24.168578 C13.1022936,23.3738532 13.2013761,22.256422 13.2013761,19.5488532 C13.2013761,16.4944954 13.0775229,15.4266055 12.8291284,14.6566514 C12.2325688,12.918578 10.9169725,11.8252294 8.78050459,11.8252294 C6.66949541,11.8252294 5.35321101,12.918578 4.75733945,14.6566514 C4.50894495,15.4513761 4.38509174,16.5192661 4.38509174,19.5488532 C4.38509174,22.5543578 4.50894495,23.6724771 4.75733945,24.4417431 C5.35321101,26.1805046 6.66949541,27.2731651 8.78050459,27.2731651 C9.47614679,27.2483945 10.1222477,27.1486239 10.6678899,26.9009174 Z M16.0575688,31.5694954 C15.9337156,31.6940367 15.7348624,31.7188073 15.5855505,31.5694954 L13.2509174,29.3841743 C11.9848624,30.1788991 10.4449541,30.5518349 8.7309633,30.5518349 C5.05527523,30.5518349 2.29885321,28.7883028 1.20619266,25.4105505 C0.758944954,24.0942661 0.63440367,22.9018349 0.63440367,19.5488532 C0.63440367,16.1965596 0.758944954,15.0041284 1.20619266,13.687844 C2.29885321,10.2853211 5.05527523,8.54724771 8.7309633,8.54724771 C12.431422,8.54724771 15.1885321,10.3107798 16.3059633,13.687844 C16.753211,15.0041284 16.8770642,16.1965596 16.8770642,19.5488532 C16.8770642,22.9018349 16.753211,24.0942661 16.3059633,25.4105505 C16.1071101,25.9321101 15.9337156,26.4034404 15.6853211,26.8513761 L18.0199541,29.0862385 C18.1438073,29.2100917 18.1438073,29.3594037 18.0199541,29.5327982 L16.0575688,31.5694954 Z" id="Fill-78"></path>
            <path d="M28.9472477,30.2036697 C28.7483945,30.2036697 28.6245413,30.0791284 28.6245413,29.8809633 L28.6245413,28.7883028 L28.5997706,28.7883028 C27.7802752,29.831422 26.587844,30.5518349 24.6756881,30.5518349 C21.4472477,30.5518349 19.4600917,28.1676606 19.4600917,24.9385321 L19.4600917,15.4018349 C19.4600917,15.2029817 19.583945,15.0784404 19.7827982,15.0784404 L22.6637615,15.0784404 C22.8626147,15.0784404 22.9864679,15.2029817 22.9864679,15.4018349 L22.9864679,24.1190367 C22.9864679,26.0559633 23.9057339,27.4224771 25.8178899,27.4224771 C27.6061927,27.4224771 28.6493119,26.0807339 28.6493119,24.168578 L28.6493119,15.4018349 C28.6493119,15.2029817 28.7731651,15.0784404 28.9720183,15.0784404 L31.8529817,15.0784404 C32.0518349,15.0784404 32.1756881,15.2029817 32.1756881,15.4018349 L32.1756881,29.9057339 C32.1756881,30.1038991 32.0518349,30.2284404 31.8529817,30.2284404 L28.9472477,30.2284404 L28.9472477,30.2036697" id="Fill-79"></path>
            <path d="M43.6995413,19.6486239 C43.3025229,18.431422 42.159633,17.7110092 40.7442661,17.7110092 C39.3041284,17.7110092 38.1612385,18.431422 37.7635321,19.6486239 C37.6396789,20.0208716 37.565367,20.3938073 37.565367,20.9401376 C37.565367,21.0639908 37.6396789,21.1389908 37.7635321,21.1389908 L43.6995413,21.1389908 C43.8240826,21.1389908 43.8983945,21.0639908 43.8983945,20.9401376 C43.8736239,20.3938073 43.8240826,20.0208716 43.6995413,19.6486239 Z M34.5605505,26.3291284 C34.237156,25.3610092 34.0383028,24.1933486 34.0383028,22.6286697 C34.0383028,21.0639908 34.237156,19.8722477 34.5350917,18.9034404 C35.3800459,16.2708716 37.7146789,14.7309633 40.7194954,14.7309633 C43.8240826,14.7309633 46.0837156,16.3204128 46.9279817,18.9034404 C47.2761468,19.9720183 47.4247706,21.0144495 47.4247706,23.4481651 C47.4247706,23.6470183 47.3009174,23.7708716 47.0772936,23.7708716 L37.7635321,23.7708716 C37.6396789,23.7708716 37.565367,23.8204128 37.565367,23.9697248 C37.565367,24.4169725 37.6644495,24.7899083 37.7889908,25.1366972 C38.2857798,26.6022936 39.4775229,27.4224771 41.1667431,27.4224771 C42.8552752,27.4224771 43.9727064,26.8011468 44.7178899,25.9816514 C44.8672018,25.8323394 45.0405963,25.7827982 45.1899083,25.9073394 L47.0525229,27.5463303 C47.2011468,27.6701835 47.2011468,27.8194954 47.0772936,27.993578 C45.7857798,29.5080275 43.65,30.5766055 40.8688073,30.5766055 C37.6644495,30.5518349 35.4048165,28.9616972 34.5605505,26.3291284 Z" id="Fill-80"></path>
            <path d="M48.393578,28.1676606 C48.2690367,28.0431193 48.2690367,27.8442661 48.393578,27.7197248 L50.1818807,25.8323394 C50.3057339,25.7084862 50.5045872,25.7084862 50.6291284,25.8323394 C51.721789,26.8266055 53.4853211,27.5463303 55.0493119,27.5463303 C56.9119266,27.5463303 57.8311927,26.8011468 57.8311927,25.7580275 C57.8311927,24.8394495 57.309633,24.2931193 55.3224771,24.0942661 L53.6834862,23.9449541 C50.6043578,23.6222477 49.0396789,22.0575688 49.0396789,19.4993119 C49.0396789,16.5688073 51.15,14.7309633 54.9006881,14.7309633 C57.2600917,14.7309633 59.221789,15.5263761 60.5876147,16.593578 C60.7369266,16.7181193 60.7369266,16.9162844 60.6626147,17.0408257 L59.1227064,18.9034404 C58.9981651,19.0527523 58.8495413,19.0527523 58.6754587,18.9777523 C57.731422,18.3075688 56.2169725,17.7110092 54.7266055,17.7110092 C53.2114679,17.7110092 52.4415138,18.3818807 52.4415138,19.2763761 C52.4415138,20.1454128 52.987844,20.691055 54.9254587,20.8651376 L56.5644495,21.0144495 C59.7433486,21.337156 61.2337156,22.9520642 61.2337156,25.4353211 C61.2337156,28.4401376 59.0477064,30.5518349 54.9006881,30.5518349 C51.7961009,30.5518349 49.6603211,29.3098624 48.393578,28.1676606" id="Fill-81"></path>
            <path d="M67.4917431,30.3777523 C64.4373853,30.3777523 63.2944954,28.912156 63.2944954,25.9568807 L63.2944954,17.9848624 C63.2944954,17.8603211 63.2201835,17.8107798 63.0963303,17.8107798 L62.1027523,17.8107798 C61.9038991,17.8107798 61.7800459,17.6862385 61.7800459,17.4873853 L61.7800459,15.3770642 C61.7800459,15.178211 61.9038991,15.0536697 62.1027523,15.0536697 L63.0963303,15.0536697 C63.2201835,15.0536697 63.2944954,14.9793578 63.2944954,14.8555046 L63.2944954,10.7077982 C63.2944954,10.509633 63.4190367,10.3850917 63.6178899,10.3850917 L66.4988532,10.3850917 C66.6977064,10.3850917 66.8215596,10.509633 66.8215596,10.7077982 L66.8215596,14.8555046 C66.8215596,14.9793578 66.8958716,15.0536697 67.0204128,15.0536697 L69.0316514,15.0536697 C69.2305046,15.0536697 69.3550459,15.178211 69.3550459,15.3770642 L69.3550459,17.4873853 C69.3550459,17.6862385 69.2305046,17.8107798 69.0316514,17.8107798 L67.0204128,17.8107798 C66.8958716,17.8107798 66.8215596,17.8603211 66.8215596,17.9848624 L66.8215596,25.8323394 C66.8215596,26.9009174 67.2688073,27.2483945 68.2369266,27.2483945 L69.0316514,27.2483945 C69.2305046,27.2483945 69.3550459,27.3722477 69.3550459,27.5711009 L69.3550459,30.0798165 C69.3550459,30.2779817 69.2305046,30.4025229 69.0316514,30.4025229 L67.4917431,30.4025229 L67.4917431,30.3777523" id="Fill-82"></path>
            <path d="M80.1082569,19.6486239 C79.7112385,18.431422 78.5690367,17.7110092 77.1529817,17.7110092 C75.712844,17.7110092 74.5706422,18.431422 74.1729358,19.6486239 C74.0483945,20.0208716 73.9740826,20.3938073 73.9740826,20.9401376 C73.9740826,21.0639908 74.0483945,21.1389908 74.1729358,21.1389908 L80.1082569,21.1389908 C80.2327982,21.1389908 80.3071101,21.0639908 80.3071101,20.9401376 C80.2823394,20.3938073 80.2327982,20.0208716 80.1082569,19.6486239 Z M70.9692661,26.3291284 C70.6458716,25.3610092 70.4477064,24.1933486 70.4477064,22.6286697 C70.4477064,21.0639908 70.6458716,19.8722477 70.9444954,18.9034404 C71.7887615,16.2708716 74.1233945,14.7309633 77.128211,14.7309633 C80.2327982,14.7309633 82.4924312,16.3204128 83.3373853,18.9034404 C83.6848624,19.9720183 83.8334862,21.0144495 83.8334862,23.4481651 C83.8334862,23.6470183 83.709633,23.7708716 83.4866972,23.7708716 L74.1729358,23.7708716 C74.0483945,23.7708716 73.9740826,23.8204128 73.9740826,23.9697248 C73.9740826,24.4169725 74.0731651,24.7899083 74.1977064,25.1366972 C74.6944954,26.6022936 75.8869266,27.4224771 77.5754587,27.4224771 C79.2639908,27.4224771 80.3573394,26.8011468 81.1266055,25.9816514 C81.2759174,25.8323394 81.45,25.7827982 81.5986239,25.9073394 L83.4612385,27.5463303 C83.6105505,27.6701835 83.6105505,27.8194954 83.4866972,27.993578 C82.1951835,29.5080275 80.0587156,30.5766055 77.2775229,30.5766055 C74.0731651,30.5518349 71.8135321,28.9616972 70.9692661,26.3291284 Z" id="Fill-83"></path>
            <path d="M86.0442661,30.2036697 C85.8454128,30.2036697 85.7215596,30.0791284 85.7215596,29.8809633 L85.7215596,15.3770642 C85.7215596,15.178211 85.8454128,15.0536697 86.0442661,15.0536697 L88.9252294,15.0536697 C89.1240826,15.0536697 89.2486239,15.178211 89.2486239,15.3770642 L89.2486239,16.668578 L89.2733945,16.668578 C89.9931193,15.5016055 91.284633,14.7309633 93.196789,14.7309633 C94.3885321,14.7309633 95.5816514,15.2029817 96.3756881,15.9977064 C96.525,16.1470183 96.5745413,16.2708716 96.45,16.4449541 L94.7862385,18.5559633 C94.6623853,18.7052752 94.5130734,18.7541284 94.3396789,18.6302752 C93.6440367,18.1830275 92.9236239,17.9098624 92.1041284,17.9098624 C90.1169725,17.9098624 89.2486239,19.3259174 89.2486239,21.7348624 L89.2486239,29.9305046 C89.2486239,30.1286697 89.1240826,30.253211 88.9252294,30.253211 L86.0442661,30.253211 L86.0442661,30.2036697" id="Fill-84"></path>
            <path d="M96.2511468,28.1676606 C96.1279817,28.0431193 96.1279817,27.8442661 96.2511468,27.7197248 L98.0401376,25.8323394 C98.1639908,25.7084862 98.362844,25.7084862 98.4866972,25.8323394 C99.5793578,26.8266055 101.34289,27.5463303 102.907569,27.5463303 C104.770183,27.5463303 105.713532,26.8011468 105.713532,25.7580275 C105.713532,24.8394495 105.191972,24.2931193 103.205505,24.0942661 L101.566514,23.9449541 C98.4866972,23.6222477 96.9220183,22.0575688 96.9220183,19.4993119 C96.9220183,16.5688073 99.0330275,14.7309633 102.783716,14.7309633 C105.142431,14.7309633 107.104817,15.5263761 108.470642,16.593578 C108.644725,16.7181193 108.644725,16.9162844 108.545642,17.0408257 L106.980275,18.9034404 C106.856422,19.0527523 106.707798,19.0527523 106.533716,18.9777523 C105.590367,18.3075688 104.074541,17.7110092 102.584174,17.7110092 C101.069725,17.7110092 100.299771,18.3818807 100.299771,19.2763761 C100.299771,20.1454128 100.846101,20.691055 102.783716,20.8651376 L104.422706,21.0144495 C107.600917,21.337156 109.166284,22.9520642 109.166284,25.4353211 C109.166284,28.4401376 106.906651,30.5518349 102.783716,30.5518349 C99.6295872,30.5518349 97.4938073,29.3098624 96.2511468,28.1676606" id="Fill-85"></path>
            <path d="M130.093349,20.5947248 L130.511697,20.5947248 C134.122706,20.5947248 137.139908,22.884633 138.108716,25.7036697 L138.108716,12.4905963 L136.083028,12.4905963 L136.083028,20.2424312 C134.651835,19.0534404 132.648165,18.5463303 130.467661,18.5463303 L121.350688,18.5463303 C120.491972,18.5463303 119.786697,17.8417431 119.786697,16.9830275 L119.786697,3.8353211 C119.786697,2.9766055 120.491972,2.27270642 121.350688,2.27270642 L134.497706,2.27270642 C135.356422,2.27270642 136.061009,2.9766055 136.083028,3.8353211 L136.083028,8.35045872 L138.108716,8.35045872 L138.131422,3.8353211 C138.131422,1.83165138 136.501376,0.202293578 134.497706,0.202293578 L121.350688,0.202293578 C119.34633,0.202293578 117.716972,1.83165138 117.716972,3.8353211 L117.716972,16.9830275 C117.716972,18.9873853 119.34633,20.6167431 121.350688,20.6167431 L130.093349,20.6167431 L130.093349,20.5947248" id="Fill-86"></path>
            <path d="M146.213532,17.9738532 L139.453211,17.9738532 L139.453211,20.0222477 L146.213532,20.0222477 C147.072248,20.0222477 147.776835,20.7268349 147.776835,21.5855505 L147.776835,23.0394495 L149.825229,23.0394495 L149.825229,21.5855505 C149.847248,19.603211 148.217202,17.9738532 146.213532,17.9738532" id="Fill-87"></path>
            <path d="M147.776835,22.2681193 L147.776835,26.9146789 C147.776835,27.7733945 147.072248,28.4786697 146.213532,28.4786697 L133.043807,28.4786697 C132.185092,28.4786697 131.481193,27.7733945 131.481193,26.9146789 L131.481193,21.6295872 L129.432798,21.6295872 L129.432798,26.9146789 C129.432798,28.9190367 131.062156,30.5263761 133.043807,30.5263761 L146.213532,30.5263761 C148.217202,30.5263761 149.825229,28.8970183 149.825229,26.9146789 L149.825229,22.2681193 L147.776835,22.2681193" id="Fill-88"></path>
            <path d="M131.502523,17.3133028 L131.502523,12.9970183 C131.502523,12.1383028 132.20711,11.4330275 133.065826,11.4330275 L146.23555,11.4330275 C147.094266,11.4330275 147.798853,12.1383028 147.798853,12.9970183 L147.798853,17.1811927 L149.847248,17.1811927 L149.847248,12.9970183 C149.847248,10.9933486 148.217202,9.3853211 146.23555,9.3853211 L133.065826,9.3853211 C131.062156,9.3853211 129.454128,11.015367 129.454128,12.9970183 L129.454128,17.3133028 L131.502523,17.3133028" id="Fill-89"></path>
            <path d="M2.64633028,36.8600917 L2.64633028,42.075 L3.34197248,42.075 C3.91307339,42.075 4.3603211,41.8768349 4.65825688,41.4536697 C4.95619266,41.0566514 5.13027523,40.4360092 5.13027523,39.6412844 L5.13027523,39.2938073 C5.13027523,38.4983945 4.9809633,37.8777523 4.65825688,37.4807339 C4.3603211,37.0830275 3.91307339,36.8600917 3.31720183,36.8600917 L2.64633028,36.8600917 Z M0.63440367,43.6149083 L0.63440367,35.3194954 L3.31720183,35.3194954 C4.06169725,35.3194954 4.70779817,35.493578 5.30366972,35.8162844 C5.89954128,36.1396789 6.34678899,36.6110092 6.66949541,37.2323394 C6.99288991,37.828211 7.1662844,38.5238532 7.1662844,39.2690367 L7.1662844,39.6412844 C7.1662844,40.4112385 7.01766055,41.081422 6.69495413,41.6772936 C6.37155963,42.2738532 5.92431193,42.7451835 5.32844037,43.0933486 C4.75733945,43.4408257 4.08715596,43.6149083 3.36674312,43.6149083 L0.63440367,43.6149083 Z" id="Fill-90"></path>
            <path d="M10.6431193,38.821789 C10.0720183,38.821789 9.74931193,39.1940367 9.65022936,39.9392202 L11.587156,39.9392202 L11.587156,39.7899083 C11.587156,39.4926606 11.512844,39.243578 11.3635321,39.0694954 C11.2149083,38.8961009 10.941055,38.821789 10.6431193,38.821789 Z M10.8419725,43.7394495 C9.89862385,43.7394495 9.12866972,43.4655963 8.55756881,42.8944954 C7.96100917,42.3233945 7.68784404,41.6029817 7.68784404,40.6844037 L7.68784404,40.5350917 C7.68784404,39.9144495 7.81238532,39.3433486 8.03600917,38.8713303 C8.25963303,38.3993119 8.60711009,38.0270642 9.05366972,37.753211 C9.50091743,37.4807339 10.0224771,37.3561927 10.6431193,37.3561927 C11.512844,37.3561927 12.1837156,37.6300459 12.7045872,38.1509174 C13.2013761,38.6972477 13.4497706,39.4424312 13.4497706,40.4112385 L13.4497706,41.156422 L9.62545872,41.156422 C9.69977064,41.5038991 9.84908257,41.7770642 10.0720183,41.9759174 C10.2956422,42.1740826 10.5942661,42.2738532 10.9665138,42.2738532 C11.5623853,42.2738532 12.0591743,42.0502294 12.3818807,41.6277523 L13.2509174,42.6715596 C13.003211,42.9942661 12.6798165,43.2674312 12.2325688,43.4655963 C11.8355505,43.6396789 11.3635321,43.7394495 10.8419725,43.7394495 Z" id="Fill-91"></path>
            <polyline id="Fill-92" points="16.3802752 41.3305046 17.3490826 37.4559633 19.3610092 37.4559633 17.3490826 43.6149083 15.3866972 43.6149083 13.3754587 37.4559633 15.412156 37.4559633 16.3802752 41.3305046"></polyline>
            <path d="M22.415367,38.821789 C21.8442661,38.821789 21.5215596,39.1940367 21.421789,39.9392202 L23.3594037,39.9392202 L23.3594037,39.7899083 C23.3594037,39.4926606 23.2844037,39.243578 23.1357798,39.0694954 C22.9369266,38.9208716 22.7133028,38.821789 22.415367,38.821789 Z M22.6142202,43.7394495 C21.6701835,43.7394495 20.9009174,43.4655963 20.3298165,42.8944954 C19.7332569,42.3233945 19.4600917,41.6029817 19.4600917,40.6844037 L19.4600917,40.5350917 C19.4600917,39.9144495 19.583945,39.3433486 19.8075688,38.8713303 C20.0311927,38.3993119 20.3793578,38.0270642 20.8259174,37.753211 C21.2731651,37.4807339 21.7947248,37.3561927 22.415367,37.3561927 C23.2844037,37.3561927 23.9552752,37.6300459 24.4768349,38.1509174 C24.9736239,38.6972477 25.2220183,39.4424312 25.2220183,40.4112385 L25.2220183,41.156422 L21.3970183,41.156422 C21.4720183,41.5038991 21.6206422,41.7770642 21.8442661,41.9759174 C22.0678899,42.1740826 22.3658257,42.2738532 22.7380734,42.2738532 C23.334633,42.2738532 23.831422,42.0502294 24.1541284,41.6277523 L25.0231651,42.6715596 C24.7747706,42.9942661 24.4520642,43.2674312 24.0048165,43.4655963 C23.6077982,43.6396789 23.1357798,43.7394495 22.6142202,43.7394495 Z" id="Fill-93"></path>
            <polyline id="Fill-94" points="27.7802752 43.6149083 25.8674312 43.6149083 25.8674312 34.8481651 27.8050459 34.8481651 27.8050459 43.6149083 27.7802752 43.6149083"></polyline>
            <path d="M30.412844,40.6100917 C30.412844,41.1811927 30.5119266,41.6029817 30.6860092,41.8513761 C30.8594037,42.1245413 31.1325688,42.2490826 31.4807339,42.2490826 C32.1756881,42.2490826 32.5238532,41.7275229 32.5238532,40.659633 L32.5238532,40.4607798 C32.5238532,39.3433486 32.1756881,38.7970183 31.4552752,38.7970183 C30.8098624,38.7970183 30.4623853,39.2690367 30.412844,40.237156 L30.412844,40.6100917 Z M28.5006881,40.4855505 C28.5006881,39.8649083 28.6245413,39.318578 28.8481651,38.8465596 C29.0965596,38.3745413 29.4192661,38.0022936 29.8905963,37.7284404 C30.337844,37.4807339 30.8594037,37.331422 31.4807339,37.331422 C32.3993119,37.331422 33.1197248,37.6300459 33.666055,38.2011468 C34.1876147,38.7722477 34.4607798,39.5415138 34.4607798,40.5350917 L34.4607798,40.6100917 C34.4607798,41.578211 34.1876147,42.3233945 33.666055,42.8944954 C33.1444954,43.4655963 32.3993119,43.7394495 31.5055046,43.7394495 C30.6364679,43.7394495 29.916055,43.4655963 29.3944954,42.9440367 C28.8729358,42.4224771 28.575,41.7027523 28.5254587,40.8082569 L28.5006881,40.4855505 Z" id="Fill-95"></path>
            <path d="M38.8568807,40.4607798 C38.8568807,39.3681193 38.5341743,38.821789 37.8880734,38.821789 C37.4408257,38.821789 37.1181193,38.9951835 36.9694954,39.318578 L36.9694954,41.7522936 C37.1428899,42.0997706 37.4408257,42.2738532 37.8880734,42.2738532 C38.5087156,42.2738532 38.8073394,41.7522936 38.8321101,40.6844037 L38.8321101,40.4607798 L38.8568807,40.4607798 Z M40.7938073,40.5853211 C40.7938073,41.5534404 40.5701835,42.2986239 40.1483945,42.8697248 C39.7259174,43.4408257 39.1300459,43.7394495 38.409633,43.7394495 C37.8385321,43.7394495 37.3665138,43.5405963 37.0190367,43.1181193 L37.0190367,45.9990826 L35.1068807,45.9990826 L35.1068807,37.4559633 L36.8944954,37.4559633 L36.9440367,38.0270642 C37.3169725,37.5798165 37.7889908,37.331422 38.409633,37.331422 C39.1795872,37.331422 39.7506881,37.6052752 40.1731651,38.1763761 C40.5949541,38.7474771 40.7938073,39.5174312 40.7938073,40.4855505 L40.7938073,40.5853211 Z" id="Fill-96"></path>
            <path d="M41.4894495,43.6149083 L43.4263761,43.6149083 L43.4263761,37.4559633 L41.4894495,37.4559633 L41.4894495,43.6149083 Z M41.3896789,35.8658257 C41.3896789,35.5933486 41.4894495,35.3697248 41.6883028,35.1956422 C41.8864679,35.0222477 42.1348624,34.9224771 42.4582569,34.9224771 C42.7809633,34.9224771 43.0293578,35.0222477 43.2275229,35.1956422 C43.4263761,35.3697248 43.5254587,35.5933486 43.5254587,35.8658257 C43.5254587,36.1396789 43.4263761,36.3633028 43.2275229,36.5366972 C43.0293578,36.7107798 42.7809633,36.8098624 42.4582569,36.8098624 C42.1348624,36.8098624 41.8864679,36.7107798 41.6883028,36.5366972 C41.4894495,36.3633028 41.3896789,36.1396789 41.3896789,35.8658257 Z" id="Fill-97"></path>
            <path d="M46.1332569,37.4559633 L46.2082569,38.1763761 C46.6300459,37.6300459 47.2259174,37.331422 47.9711009,37.331422 C48.6172018,37.331422 49.0892202,37.5302752 49.4119266,37.9025229 C49.734633,38.2754587 49.883945,38.8713303 49.9087156,39.6412844 L49.9087156,43.6149083 L47.9711009,43.6149083 L47.9711009,39.7155963 C47.9711009,39.3928899 47.896789,39.1692661 47.7729358,39.0199541 C47.6483945,38.8713303 47.4247706,38.7970183 47.0772936,38.7970183 C46.7050459,38.7970183 46.4318807,38.9456422 46.2330275,39.243578 L46.2330275,43.5901376 L44.3208716,43.5901376 L44.3208716,37.4559633 L46.1332569,37.4559633" id="Fill-98"></path>
            <path d="M52.4167431,40.6100917 C52.4167431,41.1061927 52.5165138,41.5038991 52.6899083,41.8018349 C52.8887615,42.0997706 53.137156,42.2490826 53.4853211,42.2490826 C53.9071101,42.2490826 54.2050459,42.0997706 54.3791284,41.8266055 L54.3791284,39.243578 C54.2050459,38.9704128 53.8823394,38.821789 53.4853211,38.821789 C53.137156,38.821789 52.8639908,38.9704128 52.6899083,39.2690367 C52.5165138,39.591055 52.4167431,40.0389908 52.4167431,40.6100917 Z M50.5045872,40.4855505 C50.5045872,39.8649083 50.6043578,39.318578 50.8025229,38.821789 C51.0013761,38.3497706 51.2993119,37.9775229 51.6963303,37.7036697 C52.0692661,37.4559633 52.5165138,37.3066514 53.0380734,37.3066514 C53.6834862,37.3066514 54.1802752,37.5302752 54.5525229,37.9520642 L54.6275229,37.4057339 L56.3655963,37.4057339 L56.3655963,43.341055 C56.3655963,43.8880734 56.2417431,44.3600917 55.9933486,44.7571101 C55.7449541,45.1548165 55.3727064,45.4775229 54.9006881,45.6763761 C54.4286697,45.8745413 53.8575688,45.9990826 53.2362385,45.9990826 C52.7896789,45.9990826 52.3424312,45.9240826 51.9206422,45.7506881 C51.4981651,45.5766055 51.1754587,45.3529817 50.9518349,45.0805046 L51.7465596,43.9623853 C52.0940367,44.3848624 52.566055,44.5837156 53.1619266,44.5837156 C54.0061927,44.5837156 54.4286697,44.1364679 54.4286697,43.2674312 L54.4286697,43.068578 C54.056422,43.4655963 53.5844037,43.6892202 53.0380734,43.6892202 C52.2928899,43.6892202 51.6715596,43.3912844 51.225,42.8201835 C50.7777523,42.2490826 50.5293578,41.4784404 50.5293578,40.5103211 L50.5293578,40.4855505 L50.5045872,40.4855505 Z" id="Fill-99"></path>
            <path d="M64.2385321,41.4295872 C64.2385321,41.1316514 64.1394495,40.9073394 63.9158257,40.733945 C63.6922018,40.5598624 63.3447248,40.4112385 62.8231651,40.237156 C62.3016055,40.0637615 61.8791284,39.8896789 61.556422,39.740367 C60.4885321,39.2188073 59.9422018,38.4983945 59.9422018,37.5550459 C59.9422018,37.0830275 60.066055,36.6860092 60.3392202,36.3385321 C60.6123853,35.990367 60.9853211,35.7172018 61.4821101,35.5183486 C61.9788991,35.3194954 62.5252294,35.2204128 63.1458716,35.2204128 C63.7417431,35.2204128 64.2880734,35.3194954 64.7600917,35.5431193 C65.2321101,35.7667431 65.6043578,36.0646789 65.8527523,36.4616972 C66.1266055,36.8600917 66.2504587,37.3066514 66.2504587,37.8034404 L64.2633028,37.8034404 C64.2633028,37.4559633 64.1642202,37.2068807 63.9405963,37.0087156 C63.7417431,36.834633 63.4438073,36.7355505 63.0963303,36.7355505 C62.7481651,36.7355505 62.4502294,36.8098624 62.2520642,36.983945 C62.053211,37.1573394 61.9293578,37.331422 61.9293578,37.5798165 C61.9293578,37.8034404 62.053211,37.9775229 62.2768349,38.1509174 C62.5004587,38.3243119 62.8974771,38.4983945 63.468578,38.6972477 C64.0396789,38.8713303 64.5116972,39.0694954 64.884633,39.2938073 C65.7784404,39.8146789 66.2256881,40.5350917 66.2256881,41.4295872 C66.2256881,42.1493119 65.9525229,42.7204128 65.4061927,43.1428899 C64.8598624,43.565367 64.1146789,43.7642202 63.1458716,43.7642202 C62.475,43.7642202 61.8543578,43.6396789 61.3080275,43.3912844 C60.7616972,43.1428899 60.3646789,42.8201835 60.066055,42.3977064 C59.793578,41.9759174 59.6442661,41.5038991 59.6442661,40.9575688 L61.6561927,40.9575688 C61.6561927,41.4048165 61.7800459,41.7275229 62.0036697,41.9511468 C62.2272936,42.1493119 62.5995413,42.2738532 63.1211009,42.2738532 C63.4438073,42.2738532 63.7169725,42.1988532 63.9158257,42.0502294 C64.1642202,41.8768349 64.2385321,41.6772936 64.2385321,41.4295872" id="Fill-100"></path>
            <path d="M70.6211009,42.9688073 C70.2240826,43.490367 69.6777523,43.7394495 68.9821101,43.7394495 C68.3119266,43.7394495 67.790367,43.5405963 67.4422018,43.1428899 C67.0947248,42.7451835 66.9206422,42.1740826 66.9206422,41.4536697 L66.9206422,37.4559633 L68.8334862,37.4559633 L68.8334862,41.4536697 C68.8334862,41.9759174 69.0818807,42.2490826 69.6027523,42.2490826 C70.05,42.2490826 70.3479358,42.0997706 70.546789,41.7770642 L70.546789,37.4559633 L72.4837156,37.4559633 L72.4837156,43.6149083 L70.6713303,43.6149083 L70.6211009,42.9688073" id="Fill-101"></path>
            <path d="M75.9110092,42.2490826 C76.1841743,42.2490826 76.3830275,42.1740826 76.5323394,42.0254587 C76.6816514,41.8768349 76.7552752,41.6772936 76.7552752,41.4048165 L78.5690367,41.4048165 C78.5690367,42.075 78.3206422,42.646789 77.8486239,43.068578 C77.3518349,43.490367 76.7305046,43.7139908 75.9860092,43.7139908 C75.0915138,43.7139908 74.371789,43.4408257 73.875,42.8697248 C73.3534404,42.2986239 73.1050459,41.5286697 73.1050459,40.5350917 L73.1050459,40.4607798 C73.1050459,39.8401376 73.2288991,39.2938073 73.4525229,38.821789 C73.6761468,38.3497706 74.0236239,37.9775229 74.4461009,37.7284404 C74.868578,37.4807339 75.3894495,37.3561927 75.9860092,37.3561927 C76.7800459,37.3561927 77.4261468,37.5798165 77.8981651,38.0270642 C78.3701835,38.4736239 78.5931193,39.0694954 78.5931193,39.8401376 L76.7800459,39.8401376 C76.7800459,39.5174312 76.7057339,39.2690367 76.5571101,39.0949541 C76.4077982,38.9208716 76.1841743,38.8465596 75.9357798,38.8465596 C75.4396789,38.8465596 75.1417431,39.1692661 75.0667431,39.7899083 C75.0419725,39.9887615 75.0172018,40.2619266 75.0172018,40.6348624 C75.0172018,41.2555046 75.0915138,41.6772936 75.2408257,41.9263761 C75.3646789,42.1493119 75.5889908,42.2490826 75.9110092,42.2490826" id="Fill-102"></path>
            <path d="M81.7472477,42.2490826 C82.0211009,42.2490826 82.2199541,42.1740826 82.3692661,42.0254587 C82.5172018,41.8768349 82.5922018,41.6772936 82.5922018,41.4048165 L84.4052752,41.4048165 C84.4052752,42.075 84.1568807,42.646789 83.6848624,43.068578 C83.1880734,43.490367 82.5674312,43.7139908 81.8222477,43.7139908 C80.9284404,43.7139908 80.2080275,43.4408257 79.7112385,42.8697248 C79.1896789,42.2986239 78.9412844,41.5286697 78.9412844,40.5350917 L78.9412844,40.4607798 C78.9412844,39.8401376 79.0658257,39.2938073 79.2887615,38.821789 C79.5123853,38.3497706 79.8598624,37.9775229 80.2823394,37.7284404 C80.7048165,37.4807339 81.2256881,37.3561927 81.8222477,37.3561927 C82.6169725,37.3561927 83.2623853,37.5798165 83.7344037,38.0270642 C84.206422,38.4736239 84.4300459,39.0694954 84.4300459,39.8401376 L82.6169725,39.8401376 C82.6169725,39.5174312 82.5426606,39.2690367 82.3933486,39.0949541 C82.2447248,38.9208716 82.0211009,38.8465596 81.7720183,38.8465596 C81.2759174,38.8465596 80.9779817,39.1692661 80.9036697,39.7899083 C80.8788991,39.9887615 80.8534404,40.2619266 80.8534404,40.6348624 C80.8534404,41.2555046 80.9284404,41.6772936 81.0777523,41.9263761 C81.1761468,42.1493119 81.4245413,42.2490826 81.7472477,42.2490826" id="Fill-103"></path>
            <path d="M87.7327982,38.821789 C87.1616972,38.821789 86.8389908,39.1940367 86.7399083,39.9392202 L88.6775229,39.9392202 L88.6775229,39.7899083 C88.6775229,39.4926606 88.6025229,39.243578 88.453211,39.0694954 C88.3045872,38.8961009 88.031422,38.821789 87.7327982,38.821789 Z M87.9571101,43.7394495 C87.0130734,43.7394495 86.2424312,43.4655963 85.6713303,42.8944954 C85.0754587,42.3233945 84.8029817,41.6029817 84.8029817,40.6844037 L84.8029817,40.5350917 C84.8029817,39.9144495 84.9261468,39.3433486 85.1504587,38.8713303 C85.3740826,38.3993119 85.7215596,38.0270642 86.1681193,37.753211 C86.615367,37.4807339 87.1369266,37.3561927 87.7582569,37.3561927 C88.6272936,37.3561927 89.2981651,37.6300459 89.8197248,38.1509174 C90.3158257,38.6972477 90.5649083,39.4424312 90.5649083,40.4112385 L90.5649083,41.156422 L86.7399083,41.156422 C86.8142202,41.5038991 86.962844,41.7770642 87.187156,41.9759174 C87.4107798,42.1740826 87.7080275,42.2738532 88.0802752,42.2738532 C88.6775229,42.2738532 89.1736239,42.0502294 89.4963303,41.6277523 L90.366055,42.6715596 C90.1169725,42.9942661 89.7949541,43.2674312 89.3470183,43.4655963 C88.9252294,43.6396789 88.453211,43.7394495 87.9571101,43.7394495 Z" id="Fill-104"></path>
            <path d="M94.3149083,41.9016055 C94.3149083,41.7275229 94.2399083,41.6029817 94.0665138,41.5038991 C93.8924312,41.4048165 93.5697248,41.3050459 93.0977064,41.2059633 C92.6256881,41.1061927 92.2286697,40.9575688 91.9052752,40.7841743 C91.5825688,40.6100917 91.358945,40.4112385 91.1855505,40.162844 C91.0114679,39.9144495 90.937156,39.6412844 90.937156,39.318578 C90.937156,38.7474771 91.1607798,38.2747706 91.6321101,37.9272936 C92.1041284,37.5798165 92.7,37.3809633 93.4699541,37.3809633 C94.2901376,37.3809633 94.9355505,37.5550459 95.4323394,37.9272936 C95.9291284,38.2995413 96.1775229,38.7722477 96.1775229,39.3928899 L94.2399083,39.3928899 C94.2399083,38.8961009 93.9915138,38.6477064 93.4699541,38.6477064 C93.2711009,38.6477064 93.0977064,38.6972477 92.9738532,38.821789 C92.8493119,38.9456422 92.775,39.0694954 92.775,39.243578 C92.775,39.4176606 92.8493119,39.5415138 93.0233945,39.666055 C93.196789,39.7651376 93.4451835,39.8649083 93.8174312,39.9392202 C94.190367,40.0142202 94.5130734,40.0885321 94.7862385,40.1869266 C95.7048165,40.5103211 96.1775229,41.081422 96.1775229,41.9016055 C96.1775229,42.4727064 95.9291284,42.9192661 95.4323394,43.2674312 C94.9355505,43.6149083 94.2901376,43.7889908 93.4947248,43.7889908 C92.9738532,43.7889908 92.5011468,43.6892202 92.0793578,43.5151376 C91.6575688,43.341055 91.3341743,43.068578 91.1112385,42.7451835 C90.8869266,42.4224771 90.7630734,42.075 90.7630734,41.7027523 L92.5506881,41.7027523 C92.5506881,41.9759174 92.6504587,42.1988532 92.8245413,42.3233945 C92.9986239,42.4479358 93.2463303,42.5222477 93.5201835,42.5222477 C93.7926606,42.5222477 93.9667431,42.4727064 94.116055,42.3729358 C94.265367,42.1988532 94.3149083,42.075 94.3149083,41.9016055" id="Fill-105"></path>
            <path d="M100.076147,41.9016055 C100.076147,41.7275229 100.002523,41.6029817 99.8284404,41.5038991 C99.6543578,41.4048165 99.3316514,41.3050459 98.858945,41.2059633 C98.3876147,41.1061927 97.9905963,40.9575688 97.6672018,40.7841743 C97.3444954,40.6100917 97.1208716,40.4112385 96.946789,40.162844 C96.7733945,39.9144495 96.6990826,39.6412844 96.6990826,39.318578 C96.6990826,38.7474771 96.9220183,38.2747706 97.3940367,37.9272936 C97.866055,37.5798165 98.4619266,37.3809633 99.2318807,37.3809633 C100.051376,37.3809633 100.696789,37.5550459 101.194266,37.9272936 C101.691055,38.2995413 101.938761,38.7722477 101.938761,39.3928899 L100.002523,39.3928899 C100.002523,38.8961009 99.7534404,38.6477064 99.2318807,38.6477064 C99.0330275,38.6477064 98.858945,38.6972477 98.7357798,38.821789 C98.5864679,38.9456422 98.5369266,39.0694954 98.5369266,39.243578 C98.5369266,39.4176606 98.6112385,39.5415138 98.7853211,39.666055 C98.9587156,39.7899083 99.2071101,39.8649083 99.5793578,39.9392202 C99.9522936,40.0142202 100.275,40.0885321 100.548165,40.1869266 C101.466743,40.5103211 101.93945,41.081422 101.93945,41.9016055 C101.93945,42.4727064 101.691055,42.9192661 101.194266,43.2674312 C100.696789,43.6149083 100.052064,43.7889908 99.2573394,43.7889908 C98.7357798,43.7889908 98.2630734,43.6892202 97.8412844,43.5151376 C97.4194954,43.341055 97.0961009,43.068578 96.8731651,42.7451835 C96.6488532,42.4224771 96.525,42.075 96.525,41.7027523 L98.3126147,41.7027523 C98.3126147,41.9759174 98.4123853,42.1988532 98.5864679,42.3233945 C98.7605505,42.4479358 99.0082569,42.5222477 99.2821101,42.5222477 C99.5545872,42.5222477 99.7286697,42.4727064 99.8779817,42.3729358 C100.027294,42.2738532 100.076147,42.075 100.076147,41.9016055" id="Fill-106"></path>
            <polyline id="Fill-107" points="111.525688 36.8600917 109.041743 36.8600917 109.041743 43.6149083 107.029817 43.6149083 107.029817 36.8600917 104.596101 36.8600917 104.596101 35.3194954 111.525688 35.3194954 111.525688 36.8600917"></polyline>
            <path d="M112.544037,40.6100917 C112.544037,41.1811927 112.643807,41.6029817 112.817202,41.8513761 C112.990596,42.1245413 113.26445,42.2490826 113.611927,42.2490826 C114.307569,42.2490826 114.654358,41.7275229 114.654358,40.659633 L114.654358,40.4607798 C114.654358,39.3433486 114.307569,38.7970183 113.587156,38.7970183 C112.941055,38.7970183 112.593578,39.2690367 112.544037,40.237156 L112.544037,40.6100917 Z M110.60711,40.4855505 C110.60711,39.8649083 110.730963,39.318578 110.954587,38.8465596 C111.202982,38.3745413 111.525688,38.0022936 111.997706,37.7284404 C112.469725,37.4559633 112.965826,37.331422 113.587156,37.331422 C114.506422,37.331422 115.226147,37.6300459 115.772477,38.2011468 C116.294037,38.7722477 116.567202,39.5415138 116.567202,40.5350917 L116.567202,40.6100917 C116.567202,41.578211 116.294037,42.3233945 115.772477,42.8944954 C115.250917,43.4655963 114.506422,43.7394495 113.611927,43.7394495 C112.742202,43.7394495 112.022477,43.4655963 111.500229,42.9440367 C110.979358,42.4224771 110.681422,41.7027523 110.631881,40.8082569 L110.60711,40.4855505 Z" id="Fill-108"></path>
            <path d="M118.877064,40.6100917 C118.877064,41.1061927 118.976147,41.5038991 119.150229,41.8018349 C119.349083,42.0997706 119.596789,42.2490826 119.944954,42.2490826 C120.366743,42.2490826 120.665367,42.0997706 120.83945,41.8266055 L120.83945,39.243578 C120.665367,38.9704128 120.341972,38.821789 119.944954,38.821789 C119.596789,38.821789 119.324312,38.9704128 119.150229,39.2690367 C118.976147,39.591055 118.877064,40.0389908 118.877064,40.6100917 Z M116.940138,40.4855505 C116.940138,39.8649083 117.03922,39.318578 117.237385,38.821789 C117.436239,38.3497706 117.734174,37.9775229 118.131881,37.7036697 C118.504128,37.4559633 118.952064,37.3066514 119.472936,37.3066514 C120.119037,37.3066514 120.615826,37.5302752 120.988073,37.9520642 L121.062385,37.4057339 L122.800459,37.4057339 L122.800459,43.341055 C122.800459,43.8880734 122.677294,44.3600917 122.428211,44.7571101 C122.179817,45.1548165 121.807569,45.4775229 121.33555,45.6763761 C120.863532,45.8745413 120.292431,45.9990826 119.671101,45.9990826 C119.224541,45.9990826 118.777982,45.9240826 118.354817,45.7506881 C117.933028,45.5766055 117.610321,45.3529817 117.386697,45.0805046 L118.181422,43.9623853 C118.528899,44.3848624 119.000917,44.5837156 119.596789,44.5837156 C120.441743,44.5837156 120.863532,44.1364679 120.863532,43.2674312 L120.863532,43.068578 C120.491284,43.4655963 120.019266,43.6892202 119.472936,43.6892202 C118.727752,43.6892202 118.10711,43.3912844 117.66055,42.8201835 C117.212615,42.2490826 116.964908,41.4784404 116.964908,40.5103211 L116.964908,40.4855505 L116.940138,40.4855505 Z" id="Fill-109"></path>
            <path d="M126.427294,38.821789 C125.856193,38.821789 125.532798,39.1940367 125.433028,39.9392202 L127.370642,39.9392202 L127.370642,39.7899083 C127.370642,39.4926606 127.29633,39.243578 127.147706,39.0694954 C126.998394,38.8961009 126.724541,38.821789 126.427294,38.821789 Z M126.650229,43.7394495 C125.706881,43.7394495 124.936927,43.4655963 124.365826,42.8944954 C123.769954,42.3233945 123.496101,41.6029817 123.496101,40.6844037 L123.496101,40.5350917 C123.496101,39.9144495 123.620642,39.3433486 123.844266,38.8713303 C124.067202,38.3993119 124.415367,38.0270642 124.861927,37.753211 C125.309174,37.4807339 125.831422,37.3561927 126.452064,37.3561927 C127.321101,37.3561927 127.991284,37.6300459 128.512844,38.1509174 C129.010321,38.6972477 129.258028,39.4424312 129.258028,40.4112385 L129.258028,41.156422 L125.433028,41.156422 C125.508028,41.5038991 125.657339,41.7770642 125.880963,41.9759174 C126.103899,42.1740826 126.402523,42.2738532 126.774771,42.2738532 C127.370642,42.2738532 127.867431,42.0502294 128.190138,41.6277523 L129.059174,42.6715596 C128.811468,42.9942661 128.488073,43.2674312 128.041514,43.4655963 C127.619037,43.6396789 127.147706,43.7394495 126.650229,43.7394495 Z" id="Fill-110"></path>
            <path d="M132.015138,35.915367 L132.015138,37.4559633 L133.032798,37.4559633 L133.032798,38.7970183 L132.015138,38.7970183 L132.015138,41.6277523 C132.015138,41.8513761 132.064679,42.0254587 132.139679,42.1245413 C132.213991,42.2236239 132.387385,42.2738532 132.63578,42.2738532 C132.834633,42.2738532 132.983257,42.2738532 133.107798,42.2490826 L133.107798,43.6149083 C132.760321,43.7139908 132.412156,43.7889908 132.015138,43.7889908 C131.344266,43.7889908 130.872936,43.6396789 130.549541,43.3169725 C130.226835,42.9942661 130.077523,42.5222477 130.077523,41.9016055 L130.077523,38.8465596 L129.282798,38.8465596 L129.282798,37.4559633 L130.077523,37.4559633 L130.077523,35.915367 L132.015138,35.915367" id="Fill-111"></path>
            <path d="M135.441743,38.1261468 C135.864908,37.6052752 136.38578,37.3561927 137.00711,37.3561927 C137.677294,37.3561927 138.198853,37.5550459 138.54633,37.9520642 C138.894495,38.3497706 139.068578,38.9456422 139.068578,39.740367 L139.068578,43.6396789 L137.130963,43.6396789 L137.130963,39.7899083 C137.130963,39.4678899 137.056651,39.2188073 136.93211,39.0694954 C136.808257,38.9208716 136.585321,38.8465596 136.261927,38.8465596 C135.864908,38.8465596 135.591055,38.9704128 135.416972,39.2188073 L135.416972,43.6396789 L133.504817,43.6396789 L133.504817,34.8729358 L135.416972,34.8729358 L135.416972,38.1261468 L135.441743,38.1261468" id="Fill-112"></path>
            <path d="M142.669266,38.821789 C142.098165,38.821789 141.775459,39.1940367 141.676376,39.9392202 L143.612615,39.9392202 L143.612615,39.7899083 C143.612615,39.4926606 143.538991,39.243578 143.389679,39.0694954 C143.240367,38.8961009 142.991972,38.821789 142.669266,38.821789 Z M142.893578,43.7394495 C141.948853,43.7394495 141.178899,43.4655963 140.607798,42.8944954 C140.011927,42.3233945 139.73945,41.6029817 139.73945,40.6844037 L139.73945,40.5350917 C139.73945,39.9144495 139.862615,39.3433486 140.086239,38.8713303 C140.31055,38.3993119 140.657339,38.0270642 141.104587,37.753211 C141.551835,37.4807339 142.073394,37.3561927 142.694037,37.3561927 C143.563761,37.3561927 144.233945,37.6300459 144.756193,38.1509174 C145.252294,38.6972477 145.500688,39.4424312 145.500688,40.4112385 L145.500688,41.156422 L141.676376,41.156422 C141.75,41.5038991 141.899312,41.7770642 142.122936,41.9759174 C142.34656,42.1740826 142.644495,42.2738532 143.016743,42.2738532 C143.612615,42.2738532 144.110092,42.0502294 144.432798,41.6277523 L145.301835,42.6715596 C145.05344,42.9942661 144.730734,43.2674312 144.283486,43.4655963 C143.861697,43.6396789 143.389679,43.7394495 142.893578,43.7394495 Z" id="Fill-113"></path>
            <path d="M149.772936,39.1940367 L149.151606,39.1444954 C148.555734,39.1444954 148.158028,39.3433486 147.984633,39.7155963 L147.984633,43.6149083 L146.072477,43.6149083 L146.072477,37.4559633 L147.884862,37.4559633 L147.959862,38.2506881 C148.282569,37.6541284 148.729128,37.3561927 149.300229,37.3561927 C149.499083,37.3561927 149.673165,37.3809633 149.847248,37.4311927 L149.772936,39.1940367" id="Fill-114"></path>
        </g>
    </g>
</svg>