<?xml version="1.0" encoding="UTF-8"?>
<svg width="300px" height="225px" viewBox="0 0 300 225" version="1.1" xmlns="http://www.w3.org/2000/svg" xmlns:xlink="http://www.w3.org/1999/xlink" style="background: none;">
    <!-- Generator: Sketch 49 (51002) - http://www.bohemiancoding.com/sketch -->
    <title>emerchantpay-logo</title>
    <desc>Created with Sketch.</desc>
    <defs></defs>
    <g id="emerchantpay-logo" stroke="none" stroke-width="1" fill="none" fill-rule="evenodd">
        <g id="emerchantpay_logo" transform="translate(13.000000, 75.000000)" fill-rule="nonzero">
            <path d="M55.1437475,30 L53,53 L57.1828001,53 L58.7008725,33.5138889 L59,33.5138889 C58.8479435,32.3434654 58.6011632,31.1704235 58.3244703,30 L55.1437475,30" id="Fill-1" fill="#5F604B"></path>
            <path d="M38.8264647,25.6039608 C41.2147957,25.7762576 42.3338401,27.6741326 41.1319035,30.3186269 C39.3626736,34.0908818 31.7314122,37.6960612 22.8101412,36.270697 C26.5946872,30.0445184 34.3217927,25.2750305 38.8264647,25.6039608 M84.9352405,64.7048849 C73.3717812,67.5190653 61.3342822,69.1558846 49.4547965,69.5683526 C41.2510609,69.8502928 32.9048545,69.349066 24.8902169,67.4851281 C19.5048154,66.2320607 14.1038717,64.2036579 9.78311678,60.6533003 C2.93155995,55.0171075 1.84100969,46.2743518 4.90024924,38.2599415 C5.64886926,36.3072448 6.68243114,34.2997265 7.67713731,32.7125077 C7.69786036,32.6811811 7.85069282,32.4540626 7.94653691,32.315703 C7.98280224,32.2556602 8.31178058,31.78576 8.29364791,31.8040339 C8.54491483,31.4516087 8.87648356,31.0182562 9.21323303,30.5744614 C10.0084799,29.5432914 10.8633055,28.5565008 11.7336734,27.5932053 C16.2461166,22.6018202 21.5149507,18.4144865 27.2500536,14.9372245 C33.2778693,11.2746129 39.828942,8.40561072 46.6286912,6.54950463 C51.9001159,5.11108766 57.6507609,4.17650823 63.0776085,5.20506773 C66.9968544,5.94646594 70.4912778,8.19154503 71.3668265,12.3162252 C72.5247267,17.7670684 69.7115733,23.5155151 66.2896805,27.5305519 C62.0544081,32.4984421 56.7803931,36.6100695 51.3405937,40.1421532 C45.8774809,43.6951213 39.6527962,46.8408426 33.4488344,48.8614139 L33.4281114,48.8692456 C31.3739396,49.626307 27.0376424,51.0072919 23.6571956,50.7618994 C16.9662423,50.2737253 18.7302915,44.1624111 20.6238599,39.883708 C31.2573724,41.3064616 44.3439755,37.3096988 47.2141173,29.7155882 C49.1750355,24.5310218 45.7660946,22.2024049 42.1214289,21.9387386 C30.3870046,21.0929182 17.6008857,32.3835776 14.0132084,41.8755632 C11.3762009,48.8353082 12.8786217,53.8815151 19.903734,54.3905737 C24.1441872,54.6933984 28.8483184,54.124297 34.0808874,52.1689897 C47.0845982,47.4778186 58.4848635,39.1710259 66.8647449,27.9926205 C70.7425448,22.8184964 74.7265503,16.5897072 74.744683,9.86752268 C74.7550445,5.62797797 72.4159308,2.50836225 68.5070463,1.08299808 C63.6656249,-0.684349062 58.0289566,0.0178907955 53.1150044,1.02556583 C46.5691125,2.36478162 40.2459933,4.86830586 34.3269736,7.95398433 C22.7583335,13.9843712 13.0962137,22.9699087 6.13586082,34.054334 C1.57938125,41.3064616 -2.26215328,50.5556654 1.56383896,58.974712 C6.16953577,69.0984524 19.1706563,72.6461995 29.0918142,73.5337889 C56.4384627,75.9746597 78.0681413,68.1769258 85,65.2792073 C85,65.2792073 84.9300597,64.7048849 84.9352405,64.7048849" id="Fill-2" fill="#94A545"></path>
            <path d="M94.4252723,38.9851615 C91.4973107,38.9851615 90.417902,41.0564445 90.417902,43.394821 L98.4326425,43.394821 C98.4326425,41.1926099 97.8199346,38.9851615 94.4252723,38.9851615 M85,45.1623508 C85,39.545534 88.1782592,36 94.6781771,36 C101.754301,36 104.137344,39.3805645 103.993944,46.2804772 L90.417902,46.2804772 C90.7412032,50.1559499 93.8855679,50.9467559 97.0638269,50.9467559 C99.2643607,50.9467559 100.893903,50.6508582 102.513016,50.3549606 L102.513016,53.3139365 C102.513016,53.3139365 99.3373643,54 95.7993023,54 C89.8390886,54 85,51.7663659 85,45.1623508" id="Fill-3" fill="#5F604B"></path>
            <path d="M111.148092,40.8205253 L111.148092,53 L106,53 L106,36.1325669 L110.564449,36.1325669 C110.564449,36.1325669 110.533043,37.6713234 110.564449,37.6713234 C113.9747,35.873974 116.222901,36.0019903 118,36.0019903 L118,39.7247055 C116.115594,39.7247055 112.998473,39.6632576 111.148092,40.8205253" id="Fill-4" fill="#5F604B"></path>
            <path d="M129.65123,54 C123.450876,54 119,50.9077663 119,44.6839575 C119,39.0555152 123.769899,36 129.440264,36 C131.220614,36 133.111594,36.1285153 134.858498,36.4904562 L134.858498,39.5826898 C133.646728,39.4515519 132.571314,39.3492643 131.400707,39.3492643 C126.656536,39.3492643 124.310178,40.7393269 124.310178,44.9147603 C124.310178,49.1269124 126.656536,50.5746757 131.400707,50.5746757 C133.070429,50.5746757 133.963177,50.4487834 135,50.3176453 L135,53.4413522 C133.181058,53.8714847 131.431581,54 129.65123,54" id="Fill-5" fill="#5F604B"></path>
            <path d="M149.83085,54 L149.83085,42.80153 C149.83085,41.6328092 149.354952,40.0337867 147.133216,40.0337867 C145.31376,40.0337867 142.760736,40.7987676 142.179667,41.0351679 L142.179667,54 L137,54 L137,29 L142.179667,29 L142.179667,37.868997 C144.041192,37.1358904 146.588957,36.2035699 148.660824,36.2035699 C151.542506,36.2035699 155,37.4386954 155,41.6965576 L155,54 L149.83085,54" id="Fill-6" fill="#5F604B"></path>
            <path d="M169.013875,46.1632073 C168.377293,46.1265229 166.662838,46.1265229 166.130241,46.1265229 C164.063255,46.1265229 162.234671,46.260159 162.234671,48.5581771 C162.234671,50.8614357 164.063255,50.9950719 166.130241,50.9950719 C167.187826,50.9950719 168.029838,50.929564 169.013875,50.7959278 L169.013875,46.1632073 Z M165.496196,53.9848536 C161.032523,53.921966 157,53.1987585 157,48.3957175 C157,42.9375971 163.812174,43.1708053 169.013875,43.1708053 C169.013875,40.4692584 168.975831,39.2560517 164.446218,39.2560517 C161.991199,39.2560517 159.495599,39.6150351 158.227511,39.8796872 L158.227511,36.6226331 C159.777115,36.2950936 162.75966,36.0016179 164.725197,36.0016179 C169.120393,35.9675539 174,36.4261093 174,41.7532139 L174,53.557742 C170.837386,53.8879019 168.237804,54.0529819 165.496196,53.9848536 Z" id="Fill-7" fill="#5F604B"></path>
            <path d="M191.784799,53 L191.784799,42.091942 C191.784799,41.2278367 191.670791,39.6368665 189.030049,39.6368665 C187.197968,39.6368665 184.769333,40.3688145 184.217853,40.5950067 L184.217853,53 L179,53 L179,36.25669 L183.706142,36.25669 L183.706142,37.7536254 C185.874945,36.894603 188.552806,36 191.087495,36 C193.836942,36 197,37.3774854 197,41.2278367 L197,53 L191.784799,53" id="Fill-8" fill="#5F604B"></path>
            <path d="M208.042458,39.2765288 L208.042458,48.0980217 C208.042458,49.4346897 209.012541,49.7268435 210.017556,49.7268435 L213.594231,49.7268435 L213.594231,53 L209.348442,53 C205.962558,53 202.944822,53 202.944822,48.3927609 L202.944822,39.2765288 L199,39.2765288 L199,35.9697617 L202.944822,35.9697617 L202.944822,31.4892086 C202.944822,31.4892086 207.190613,30.2559577 208.042458,30 L208.042458,35.9697617 L214,35.9697617 L214,39.2765288 L208.042458,39.2765288" id="Fill-9" fill="#5F604B"></path>
            <path d="M224.684647,33.4143898 L221.359181,33.4143898 L221.359181,41.5680784 L224.684647,41.5680784 C227.831297,41.5680784 229.499368,40.6123634 229.499368,37.491234 C229.499368,34.3701048 227.831297,33.4143898 224.684647,33.4143898 M225.346538,45.047928 L221.359181,45.047928 L221.359181,53 L216,53 L216,30 L224.831438,30 C233.259868,30 235,33.8123862 235,37.4257742 C235,41.3664618 232.152269,45.047928 225.346538,45.047928" id="Fill-10" fill="#94A545"></path>
            <path d="M247.015668,46.1632073 C246.381529,46.1265229 244.659206,46.1265229 244.131603,46.1265229 C242.061774,46.1265229 240.23038,46.260159 240.23038,48.5581771 C240.23038,50.8614357 242.061774,50.9950719 244.131603,50.9950719 C245.191883,50.9950719 246.03402,50.929564 247.015668,50.7959278 L247.015668,46.1632073 Z M243.500001,53.9848536 C239.043271,53.921966 235,53.1987585 235,48.3957175 C235,42.9375971 241.810653,43.1708053 247.015668,43.1708053 C247.015668,40.4692584 246.977619,39.2560517 242.449866,39.2560517 C239.991944,39.2560517 237.493436,39.6150351 236.227694,39.8796872 L236.227694,36.6226331 C237.774994,36.2950936 240.76052,36.0016179 242.72635,36.0016179 C247.122203,35.9675539 252,36.4261093 252,41.7532139 L252,53.557742 C248.844524,53.8879019 246.242017,54.0529819 243.500001,53.9848536 Z" id="Fill-11" fill="#94A545"></path>
            <path d="M263.591166,60 L258.474825,60 L261.787564,52.9121831 L261.808597,52.9121831 L254,36 L259.64743,36 L264.358879,48.4607979 L264.382541,48.483902 L268.828448,36 L274,36 C270.639936,43.9888758 266.938082,52.0136912 263.591166,60" id="Fill-12" fill="#94A545"></path>
            <path d="M80.7640367,30 L72.9551241,30 L68.0396577,47.4463798 L67.5752453,47.4463798 L62.8398038,30 L58,30 C58.2869965,31.1704235 58.5557295,32.3434654 58.712273,33.5138889 L58.8975163,33.5138889 L64.4261115,53 L70.4660823,53 L76.2086203,33.5138889 L76.6782509,33.5138889 L77.9071175,53 L83,53 L80.7640367,30" id="Fill-13" fill="#5F604B"></path>
        </g>
    </g>
</svg>
