<?xml version="1.0" encoding="UTF-8"?>
<svg width="300px" height="225px" viewBox="0 0 300 225" version="1.1" xmlns="http://www.w3.org/2000/svg" xmlns:xlink="http://www.w3.org/1999/xlink" style="background: none;">
    <!-- Generator: Sketch 49.3 (51167) - http://www.bohemiancoding.com/sketch -->
    <title>funding-circle-logo</title>
    <desc>Created with Sketch.</desc>
    <defs>
        <path d="M0.0263013699,29.183736 C1.20560061,13.6106662 13.8212193,1.18893952 29.6188493,0.0575135135 L30.0103014,0.0229189189 C31.0759452,0.0229189189 31.9430137,0.855783784 31.9697534,1.90010811 L31.9719452,1.90010811 L31.9719452,1.92691892 C31.9723836,1.9347027 31.974137,1.94205405 31.974137,1.94983784 C31.974137,1.95762162 31.9723836,1.96151351 31.9719452,1.9692973 L31.9719452,29.6566486 L31.9693151,29.6566486 C31.9627397,30.72 31.0895342,31.5801081 30.0111781,31.5801081 L2.04493151,31.5801081 C2.01643836,31.5835676 1.98926027,31.5913514 1.96032877,31.5913514 C0.985241442,31.5913514 0.176451905,30.8866718 0.0263013699,29.9661668 L0.0263013699,29.183736 Z" id="path-1"></path>
        <path d="M31.6951351,1.92691892 C31.6955676,1.9347027 31.6972973,1.94205405 31.6972973,1.94983784 C31.6972973,1.95762162 31.6955676,1.96151351 31.6951351,1.9692973 L31.6951351,29.6566486 L31.6925405,29.6566486 C31.6860541,30.72 30.8242162,31.5801081 29.7608649,31.5801081 L2.17254054,31.5801081 C2.14443243,31.5835676 2.11762162,31.5913514 2.08908108,31.5913514 C1.02183784,31.5913514 0.156540541,30.7238919 0.156540541,29.6566486 C0.156540541,29.6142703 0.153513514,29.5952432 0.156108108,29.5528649 L0.157405405,29.5338378 C1.15848649,13.7971892 13.6730811,1.19740541 29.3738378,0.0575135135 L29.76,0.0229189189 C30.8108108,0.0229189189 31.6665946,0.855783784 31.692973,1.90010811 L31.6951351,1.90010811 L31.6951351,1.92691892 Z" id="path-3"></path>
        <path d="M0.0263013699,1.97004185 C0.154914601,1.0273344 0.974127372,0.298378378 1.96646575,0.298378378 L1.97172603,0.298378378 L1.97172603,0.294918919 L29.9327123,0.294918919 C29.9616438,0.294918919 29.9883836,0.287135135 30.0177534,0.287135135 C31.0996164,0.287135135 31.9767671,1.1507027 31.9767671,2.21837838 C31.9767671,2.26032432 31.9798356,2.28324324 31.9772055,2.32562162 L31.9758904,2.34075676 C30.9610959,18.0812973 18.2746301,30.6810811 2.35879452,31.820973 L1.96734247,31.8516757 C0.977465066,31.8516757 0.158313677,31.135802 0.0263013699,30.1933616 L0.0263013699,1.97004185 Z" id="path-5"></path>
        <path d="M31.6951351,29.9515676 L31.6951351,29.9744865 L31.692973,29.9744865 C31.6665946,31.0227027 30.8108108,31.8516757 29.76,31.8516757 L29.3738378,31.820973 C13.6730811,30.6810811 1.15848649,18.0812973 0.157405405,2.34075676 L0.156108108,2.32562162 C0.153513514,2.28324324 0.156540541,2.26032432 0.156540541,2.21837838 C0.156540541,1.1507027 1.02183784,0.287135135 2.08908108,0.287135135 C2.11762162,0.287135135 2.14443243,0.294918919 2.17254054,0.294918919 L29.7556757,0.294918919 L29.7556757,0.298378378 L29.7608649,0.298378378 C30.8242162,0.298378378 31.6860541,1.15848649 31.6925405,2.21837838 L31.6951351,2.21837838 L31.6951351,29.9052973 C31.6955676,29.9130811 31.6972973,29.9208649 31.6972973,29.9286486 C31.6972973,29.936 31.6955676,29.9437838 31.6951351,29.9515676 Z" id="path-7"></path>
        <path d="M7.31884984,6.74708276 L7.31884984,13.3916276 L18.3817764,13.3916276 L18.3817764,18.3751448 L7.31884984,18.3751448 L7.31884984,29.5448276 L1.02155272,29.5448276 L1.02155272,1.74488276 L19.6414121,1.74488276 L19.6414121,6.74708276 L7.31884984,6.74708276 Z M39.8352652,8.8856069 L39.8352652,29.5448276 L34.1583067,29.5448276 L33.9837125,27.368069 C33.31223,28.1957586 32.5049521,28.8288 31.5618786,29.2680621 C30.6188051,29.7073241 29.540377,29.9267379 28.3261534,29.9267379 C26.1432843,29.9267379 24.4317316,29.3028207 23.1919361,28.0554207 C21.9516997,26.8080207 21.3318019,24.873269 21.3318019,22.2511655 L21.3318019,8.8856069 L27.3769073,8.8856069 L27.3769073,22.2894 C27.3769073,23.2439586 27.6255719,23.953469 28.122901,24.4183655 C28.62023,24.8828276 29.3080256,25.1152759 30.1862875,25.1152759 C31.9040128,25.1152759 33.0988371,24.5295931 33.7707604,23.3586621 L33.7707604,8.8856069 L39.8352652,8.8856069 Z M59.9418211,10.3750138 C61.0978466,11.6224138 61.6758594,13.6653517 61.6758594,16.5038276 L61.6758594,29.5448276 L55.6113546,29.5448276 L55.6113546,16.4655931 C55.6113546,15.2694621 55.3560767,14.4452483 54.8459617,13.9933862 C54.3358466,13.5415241 53.5382684,13.3151586 52.4532268,13.3151586 C51.0194377,13.3151586 49.9471821,13.8882414 49.236901,15.0339724 L49.236901,29.5448276 L43.2111949,29.5448276 L43.2111949,8.8856069 L48.868754,8.8856069 L49.0817061,11.2722207 C49.8052141,10.3684966 50.6737764,9.68114483 51.6878339,9.21016552 C52.7018914,8.73918621 53.8288179,8.50369655 55.0686134,8.50369655 C57.161099,8.50369655 58.7857955,9.12761379 59.9418211,10.3750138 Z M83.477655,0.217241379 L83.477655,29.5448276 L78.0330479,29.5448276 L77.7424984,27.3107172 C76.3735208,29.054731 74.6231693,29.9267379 72.491885,29.9267379 C70.7869457,29.9267379 69.3209712,29.4779172 68.0935208,28.5807103 C66.8665112,27.683069 65.9331374,26.4452276 65.2938403,24.8667517 C64.6545431,23.2887103 64.3348946,21.4873448 64.3348946,19.4635241 L64.3348946,19.0624966 C64.3348946,16.9622069 64.6545431,15.1165241 65.2938403,13.5254483 C65.9331374,11.9343724 66.8665112,10.6995724 68.0935208,9.82104828 C69.3209712,8.94295862 70.7997316,8.50369655 72.5306837,8.50369655 C74.4939872,8.50369655 76.1213291,9.24188276 77.4131502,10.7186897 L77.4131502,0.217241379 L83.477655,0.217241379 Z M76.0860575,24.6091034 C76.6477572,24.2719448 77.0904153,23.7848897 77.4131502,23.1483724 L77.4131502,15.2820621 C76.7800256,13.9707931 75.6627987,13.3151586 74.0610288,13.3151586 C72.7824345,13.3151586 71.8490607,13.8308897 71.2613482,14.8619172 C70.6736358,15.8929448 70.38,17.2932828 70.38,19.0624966 L70.38,19.4635241 C70.38,21.1945034 70.6639361,22.5692069 71.2322492,23.5876345 C71.8010032,24.6060621 72.7308498,25.1152759 74.0226709,25.1152759 C74.8361214,25.1152759 75.5239169,24.9466966 76.0860575,24.6091034 Z M92.840492,1.35341379 C93.4603898,1.91954483 93.7707796,2.65468966 93.7707796,3.55841379 C93.7707796,4.44953793 93.4603898,5.17816552 92.840492,5.74473103 C92.2205942,6.31129655 91.4067029,6.59457931 90.3992588,6.59457931 C89.3918147,6.59457931 88.5814505,6.31129655 87.9677252,5.74473103 C87.354,5.17816552 87.0475783,4.44953793 87.0475783,3.55841379 C87.0475783,2.65468966 87.354,1.91954483 87.9677252,1.35341379 C88.5814505,0.786848276 89.3918147,0.503565517 90.3992588,0.503565517 C91.4067029,0.503565517 92.2205942,0.786848276 92.840492,1.35341379 Z M87.3963259,29.5448276 L87.3963259,8.8856069 L93.4608307,8.8856069 L93.4608307,29.5448276 L87.3963259,29.5448276 Z M113.973891,10.3750138 C115.129917,11.6224138 115.70793,13.6653517 115.70793,16.5038276 L115.70793,29.5448276 L109.643866,29.5448276 L109.643866,16.4655931 C109.643866,15.2694621 109.388588,14.4452483 108.878473,13.9933862 C108.368358,13.5415241 107.570339,13.3151586 106.485297,13.3151586 C105.051949,13.3151586 103.979693,13.8882414 103.269412,15.0339724 L103.269412,29.5448276 L97.2437061,29.5448276 L97.2437061,8.8856069 L102.901265,8.8856069 L103.114217,11.2722207 C103.837725,10.3684966 104.706288,9.68114483 105.720345,9.21016552 C106.733962,8.73918621 107.861329,8.50369655 109.101125,8.50369655 C111.19361,8.50369655 112.817866,9.12761379 113.973891,10.3750138 Z M137.917112,8.8856069 L137.917112,28.7618897 C137.917112,30.6332069 137.48724,32.2403586 136.628377,33.5829103 C135.769514,34.9258966 134.561904,35.9443241 133.005105,36.6381931 C131.448748,37.3316276 129.637112,37.6787793 127.570639,37.6787793 C126.13685,37.6787793 124.686748,37.4050552 123.220773,36.8576069 C121.754799,36.3101586 120.601859,35.5402552 119.762396,34.5474621 L122.377783,30.9004138 C122.984895,31.5625655 123.708403,32.0874207 124.547866,32.4758483 C125.38777,32.8638414 126.311003,33.0580552 127.318447,33.0580552 C128.765463,33.0580552 129.885776,32.6826621 130.680268,31.9314414 C131.47476,31.1806552 131.872006,30.1174759 131.872006,28.7427724 L131.872006,27.7882138 C130.567399,29.2137517 128.920217,29.9267379 126.931342,29.9267379 C125.213176,29.9267379 123.711489,29.4779172 122.426281,28.5807103 C121.141073,27.683069 120.153029,26.4391448 119.462147,24.8476345 C118.770824,23.2565586 118.425604,21.4621448 118.425604,19.4635241 L118.425604,19.0624966 C118.425604,16.9748069 118.770824,15.1356414 119.462147,13.5445655 C120.153029,11.9534897 121.144601,10.7156483 122.435981,9.8306069 C123.727802,8.946 125.239188,8.50369655 126.9697,8.50369655 C129.21738,8.50369655 130.967732,9.261 132.220754,10.7760414 L132.453105,8.8856069 L137.917112,8.8856069 Z M131.872006,23.472931 L131.872006,14.9575034 C131.174511,13.8626069 130.050671,13.3151586 128.500486,13.3151586 C127.195879,13.3151586 126.198134,13.8469655 125.507252,14.9097103 C124.81593,15.9724552 124.470268,17.3567172 124.470268,19.0624966 L124.470268,19.4635241 C124.470268,21.131069 124.809757,22.4896966 125.487853,23.5398414 C126.165949,24.5899862 127.15708,25.1152759 128.461687,25.1152759 C130.011872,25.1152759 131.148498,24.5678276 131.872006,23.472931 Z M21.9080511,58.2980276 C20.9654185,59.7683172 19.6444984,60.9105724 17.9461725,61.7252276 C16.2474058,62.5398828 14.2616166,62.9474276 11.9879233,62.9474276 C9.55991693,62.9474276 7.46081789,62.4030207 5.69106709,61.3150759 C3.92175719,60.2266966 2.5651246,58.6703793 1.62249201,56.6465586 C0.67941853,54.6227379 0.208102236,52.2296069 0.208102236,49.4676 L0.208102236,47.8634897 C0.208102236,45.1266828 0.692204473,42.740069 1.66129073,40.7036483 C2.6299361,38.6667931 4.00244089,37.1013517 5.77836422,36.0064552 C7.55428754,34.9119931 9.62428754,34.3645448 11.9879233,34.3645448 C14.3259872,34.3645448 16.3280895,34.787731 17.99423,35.6341034 C19.6608115,36.4804759 20.9557188,37.6518414 21.879393,39.147331 C22.8026262,40.6428207 23.3550671,42.3646759 23.5358339,44.3120276 L17.258377,44.3120276 C17.1547668,42.6575172 16.7028498,41.4322759 15.9017444,40.6367379 C15.1010799,39.8412 13.7964728,39.4432138 11.9879233,39.4432138 C10.141016,39.4432138 8.77821086,40.1114483 7.89994888,41.4479172 C7.0216869,42.7848207 6.58255591,44.9103103 6.58255591,47.8252552 L6.58255591,49.4676 C6.58255591,51.4531862 6.76023642,53.0568621 7.11515655,54.2790621 C7.47051757,55.5008276 8.04191693,56.4045517 8.82979553,56.9902345 C9.61767412,57.5759172 10.6705304,57.8683241 11.9879233,57.8683241 C13.6800767,57.8683241 14.9494121,57.4868483 15.7954888,56.7230276 C16.6415655,55.9592069 17.1159681,54.7817586 17.2195783,53.1906828 L23.4970351,53.1906828 C23.380639,55.1254345 22.8511246,56.8277379 21.9080511,58.2980276 Z M32.007623,34.3741034 C32.6275208,34.9402345 32.9374696,35.6753793 32.9374696,36.5791034 C32.9374696,37.4702276 32.6275208,38.1988552 32.007623,38.7654207 C31.3872843,39.3319862 30.5738339,39.615269 29.5663898,39.615269 C28.5585048,39.615269 27.7481406,39.3319862 27.1344153,38.7654207 C26.521131,38.1988552 26.2142684,37.4702276 26.2142684,36.5791034 C26.2142684,35.6753793 26.521131,34.9402345 27.1344153,34.3741034 C27.7481406,33.8075379 28.5585048,33.5242552 29.5663898,33.5242552 C30.5738339,33.5242552 31.3872843,33.8075379 32.007623,34.3741034 Z M26.563016,62.5655172 L26.563016,41.9062966 L32.6275208,41.9062966 L32.6275208,62.5655172 L26.563016,62.5655172 Z M48.8105559,41.7537931 L48.7329585,47.5198138 C47.7383003,47.4181448 47.0408051,47.3673103 46.6404728,47.3673103 C45.5814441,47.3673103 44.7190543,47.5324138 44.0537444,47.8634897 C43.3888754,48.1945655 42.901246,48.6907448 42.5912971,49.3528966 L42.5912971,62.5655172 L36.5461917,62.5655172 L36.5461917,41.9062966 L42.2231502,41.9062966 L42.4167029,44.4458483 C42.9462173,43.5038897 43.6018275,42.7813448 44.3835335,42.2786483 C45.1647987,41.7759517 46.0527604,41.5243862 47.0474185,41.5243862 C47.7709265,41.5243862 48.358639,41.6008552 48.8105559,41.7537931 Z M68.4616677,55.2718552 C68.4616677,56.7612621 68.0741214,58.0881724 67.2994696,59.2525862 C66.524377,60.4174345 65.4715208,61.3246345 64.140901,61.9737517 C62.810722,62.622869 61.3253482,62.9474276 59.6847796,62.9474276 C57.579508,62.9474276 55.7934441,62.4955655 54.3274696,61.5918414 C52.8614952,60.6881172 51.7636677,59.4502759 51.0335463,57.8778828 C50.3038658,56.3059241 49.939246,54.5080345 49.939246,52.4842138 L49.939246,52.0067172 C49.939246,49.9828966 50.3038658,48.1819655 51.0335463,46.6034897 C51.7636677,45.0250138 52.8584089,43.7836966 54.31777,42.8799724 C55.7775719,41.9762483 57.5601086,41.5243862 59.6653802,41.5243862 C61.3963323,41.5243862 62.9235911,41.8524207 64.2475974,42.5076207 C65.5716038,43.1632552 66.6050607,44.111731 67.3475272,45.3526138 C68.0904345,46.593931 68.4616677,48.0607448 68.4616677,49.7539241 L62.7847093,49.7539241 C62.7719233,48.7480966 62.4844601,47.9273586 61.9227604,47.2908414 C61.3606198,46.6543241 60.5630415,46.3358483 59.5300256,46.3358483 C58.160607,46.3358483 57.2272332,46.8420207 56.7299042,47.853931 C56.2325751,48.8658414 55.9843514,50.2501034 55.9843514,52.0067172 L55.9843514,52.4842138 C55.9843514,54.2790621 56.2325751,55.6694069 56.7299042,56.6561172 C57.2272332,57.6423931 58.173393,58.1359655 59.5683834,58.1359655 C60.5374696,58.1359655 61.3121214,57.8778828 61.8936613,57.3625862 C62.4747604,56.8468552 62.7719233,56.1499448 62.7847093,55.2718552 L68.4616677,55.2718552 Z M71.3340958,62.5655172 L71.3340958,33.237931 L77.3986006,33.237931 L77.3986006,62.5655172 L71.3340958,62.5655172 Z M99.8978914,54.1834759 L86.7420383,54.1834759 C86.9748307,55.4056759 87.5105176,56.3697931 88.3504217,57.0762621 C89.189885,57.782731 90.2621406,58.1359655 91.5667476,58.1359655 C92.5741917,58.1359655 93.5040383,57.9578276 94.3567284,57.6011172 C95.2089776,57.2448414 95.939099,56.6913103 96.5462109,55.9400897 L99.3939489,59.2812621 C98.6580958,60.3122897 97.5792268,61.1812552 96.1586645,61.8877241 C94.7376613,62.5941931 93.0776933,62.9474276 91.1792013,62.9474276 C89.0219042,62.9474276 87.1423706,62.4986069 85.5410415,61.6014 C83.9392716,60.7037586 82.712262,59.4915517 81.8595719,57.9639103 C81.0068818,56.4367034 80.5809776,54.7561241 80.5809776,52.9234759 L80.5809776,52.1978897 C80.5809776,50.1484345 80.9746965,48.3183931 81.7625751,46.7082 C82.5504537,45.0980069 83.690607,43.8314897 85.1825942,42.9086483 C86.6741406,41.9858069 88.4535911,41.5243862 90.5205048,41.5243862 C92.4965942,41.5243862 94.1887476,41.9349724 95.596524,42.7561448 C97.0047412,43.5768828 98.0734696,44.7482483 98.8031502,46.2693724 C99.5328307,47.7904966 99.8978914,49.581869 99.8978914,51.6439241 L99.8978914,54.1834759 Z M93.9691821,49.7539241 C93.9691821,48.6846621 93.6751054,47.8474138 93.087393,47.2430483 C92.4996805,46.6382483 91.6311182,46.3358483 90.4817061,46.3358483 C88.4275783,46.3358483 87.1877827,47.6345172 86.7614377,50.2309862 L93.9691821,50.2309862 L93.9691821,49.7539241 Z" id="path-9"></path>
    </defs>
    <g id="funding-circle-logo" stroke="none" stroke-width="1" fill="none" fill-rule="evenodd">
        <g id="FC-logo-RBG" transform="translate(43.000000, 78.000000)">
            <g id="Group-3">
                <mask id="mask-2" fill="white">
                    <use xlink:href="#path-1"></use>
                </mask>
                <g id="Clip-2"></g>
                <polygon id="Fill-1" fill="#8D468A" mask="url(#mask-2)" points="0.0263013699 31.5935135 32.0087671 31.5935135 32.0087671 -0.00864864865 0.0263013699 -0.00864864865"></polygon>
            </g>
            <g id="Group-6" transform="translate(37.000000, 0.000000)">
                <mask id="mask-4" fill="white">
                    <use xlink:href="#path-3"></use>
                </mask>
                <g id="Clip-5"></g>
                <polygon id="Fill-4" fill="#73247E" mask="url(#mask-4)" points="0.147027027 31.5935135 31.6972973 31.5935135 31.6972973 -0.00864864865 0.147027027 -0.00864864865"></polygon>
            </g>
            <g id="Group-9" transform="translate(0.000000, 37.000000)">
                <mask id="mask-6" fill="white">
                    <use xlink:href="#path-5"></use>
                </mask>
                <g id="Clip-8"></g>
                <polygon id="Fill-7" fill="#8D468A" mask="url(#mask-6)" points="0.0263013699 31.8702703 32.0087671 31.8702703 32.0087671 0.268108108 0.0263013699 0.268108108"></polygon>
            </g>
            <g id="Group-12" transform="translate(37.000000, 37.000000)">
                <mask id="mask-8" fill="white">
                    <use xlink:href="#path-7"></use>
                </mask>
                <g id="Clip-11"></g>
                <polygon id="Fill-10" fill="#73247E" mask="url(#mask-8)" points="0.147027027 31.8702703 31.6972973 31.8702703 31.6972973 0.268108108 0.147027027 0.268108108"></polygon>
            </g>
            <g id="Group-15" transform="translate(77.000000, 2.000000)">
                <mask id="mask-10" fill="white">
                    <use xlink:href="#path-9"></use>
                </mask>
                <g id="Clip-14"></g>
                <polygon id="Fill-13" fill="#2A2A2A" mask="url(#mask-10)" points="0.167539936 62.9913103 137.938275 62.9913103 137.938275 0.217241379 0.167539936 0.217241379"></polygon>
            </g>
        </g>
    </g>
</svg>
