<?xml version="1.0" encoding="UTF-8"?>
<svg width="180px" height="130px" viewBox="0 0 180 130" version="1.1" xmlns="http://www.w3.org/2000/svg" xmlns:xlink="http://www.w3.org/1999/xlink" style="background: #FFFFFF;">
    <!-- Generator: Sketch 49 (51002) - http://www.bohemiancoding.com/sketch -->
    <title>github-logo</title>
    <desc>Created with Sketch.</desc>
    <defs></defs>
    <g id="github-logo" stroke="none" stroke-width="1" fill="none" fill-rule="evenodd">
        <g id="Group" transform="translate(21.000000, 47.000000)" fill="#11110F">
            <path d="M26.4606637,16.2644806 L14.9160439,16.2644806 C14.6181502,16.2644806 14.3767076,16.5114264 14.3767076,16.8165 L14.3767076,22.5894914 C14.3767076,22.8937848 14.6181502,23.1419009 14.9160439,23.1419009 L19.4195403,23.1419009 L19.4195403,30.3142517 C19.4195403,30.3142517 18.4083801,30.6669199 15.6125277,30.6669199 C12.3143374,30.6669199 7.70671168,29.4345318 7.70671168,19.0713919 C7.70671168,8.70630146 12.5046689,7.34244297 17.0089282,7.34244297 C20.9082459,7.34244297 22.5876644,8.04426832 23.6568014,8.38289222 C23.9928377,8.48783442 24.3033184,8.14608956 24.3033184,7.84101595 L25.5910125,2.26347453 C25.5910125,2.12069072 25.5437157,1.94864793 25.3850425,1.83239226 C24.9509797,1.51561505 22.3027392,0 15.6125277,0 C7.90581604,0 0,3.35346899 0,19.4755559 C0,35.5976429 9.05123822,38 16.6786133,38 C22.9938831,38 26.8249255,35.2399031 26.8249255,35.2399031 C26.9828358,35.1505657 27,34.9250765 27,34.8216948 L27,16.8165 C27,16.5114264 26.7585574,16.2644806 26.4606637,16.2644806" id="Fill-11"></path>
            <path d="M85,1.55627153 C85,1.24840536 84.7646136,1 84.4696261,1 L78.0410116,1 C77.747533,1 77.5087515,1.24840536 77.5087515,1.55627153 C77.5087515,1.55783629 77.5106377,14.4400991 77.5106377,14.4400991 L67.4897396,14.4400991 L67.4897396,1.55627153 C67.4897396,1.24840536 67.2535987,1 66.9593657,1 L60.5311283,1 C60.2387814,1 60,1.24840536 60,1.55627153 L60,36.4417725 C60,36.7496387 60.2387814,37 60.5311283,37 L66.9593657,37 C67.2535987,37 67.4897396,36.7496387 67.4897396,36.4417725 L67.4897396,21.5202386 L77.5106377,21.5202386 C77.5106377,21.5202386 77.4929082,36.440599 77.4929082,36.4417725 C77.4929082,36.7496387 77.7313124,37 78.0255455,37 L84.4692489,37 C84.7638591,37 84.9992456,36.7496387 85,36.4417725 L85,1.55627153" id="Fill-13"></path>
            <path d="M39,6.49878367 C39,4.01058654 36.9855758,2 34.4997952,2 C32.0164718,2 30,4.01058654 30,6.49878367 C30,8.98414272 32.0164718,11 34.4997952,11 C36.9855758,11 39,8.98414272 39,6.49878367" id="Fill-14"></path>
            <path d="M38,29.2720543 C38,28.3985767 38,13.5429622 38,13.5429622 C38,13.2441611 37.7460126,13 37.4324528,13 L30.5941132,13 C30.2805535,13 30,13.3072073 30,13.6060085 C30,13.6060085 30,32.5328844 30,36.1406601 C30,36.8028371 30.434717,37 30.9970314,37 C30.9970314,37 33.9160755,37 37.1579371,37 C37.8341635,37 38,36.6847686 38,36.1299613 C38,34.9221474 38,30.1902374 38,29.2720543" id="Fill-15"></path>
            <path d="M109.460891,13 L103.026961,13 C102.732105,13 102.491656,13.2476015 102.491656,13.5521629 L102.491656,30.4956214 C102.491656,30.4956214 100.856827,31.7134798 98.536792,31.7134798 C96.2171379,31.7134798 95.6015564,30.641315 95.6015564,28.3280429 C95.6015564,26.011671 95.6015564,13.5521629 95.6015564,13.5521629 C95.6015564,13.2476015 95.3618677,13 95.0662516,13 L88.5360657,13 C88.241591,13 88,13.2476015 88,13.5521629 C88,13.5521629 88,22.5750864 88,29.4467056 C88,36.3187123 91.7604496,38 96.9335409,38 C101.177933,38 104.599775,35.6119438 104.599775,35.6119438 C104.599775,35.6119438 104.762611,36.8704878 104.83642,37.0196686 C104.909849,37.168462 105.10198,37.3188053 105.30971,37.3188053 L109.463934,37.2998187 C109.758409,37.2998187 110,37.0518297 110,36.7484307 L109.997717,13.5521629 C109.997717,13.2476015 109.757648,13 109.460891,13" id="Fill-16"></path>
            <path d="M126.282026,31.6080508 C124.028924,31.5378226 122.50061,30.487556 122.50061,30.487556 L122.50061,19.3453402 C122.50061,19.3453402 124.008183,18.3960759 125.857985,18.2264235 C128.197124,18.011399 130.450994,18.7369588 130.450994,24.468842 C130.450994,30.5128066 129.433911,31.7058968 126.282026,31.6080508 Z M128.84394,11.7843677 C125.154707,11.7843677 122.645413,13.4753679 122.645413,13.4753679 L122.645413,1.56103647 C122.645413,1.25053316 122.403433,1 122.105376,1 L115.540806,1 C115.242364,1 115,1.25053316 115,1.56103647 L115,36.7453615 C115,37.0558648 115.242364,37.3083707 115.541574,37.3083707 C115.542342,37.3083707 120.094638,37.3083707 120.096174,37.3083707 C120.301281,37.3083707 120.456455,37.199872 120.5713,37.0097036 C120.684608,36.8207187 120.847848,35.3873534 120.847848,35.3873534 C120.847848,35.3873534 123.531905,38 128.613099,38 C134.578865,38 138,34.8918106 138,24.0470783 C138,13.2015568 132.535863,11.7843677 128.84394,11.7843677 Z" id="Fill-17"></path>
            <path d="M57.3675293,12.9362612 L52.4642511,12.9362612 C52.4642511,12.9362612 52.4569637,6.37388263 52.4569637,6.37271667 C52.4569637,6.12397979 52.3303928,6 52.0469508,6 L45.3655438,6 C45.1054983,6 44.9662703,6.11581811 44.9662703,6.36883016 L44.9662703,13.151574 C44.9662703,13.151574 41.6178959,13.9708511 41.391219,14.0369219 C41.1660763,14.1029926 41,14.3136417 41,14.5650991 L41,18.8274388 C41,19.1340847 41.2416353,19.381267 41.5404192,19.381267 L44.9662703,19.381267 C44.9662703,19.381267 44.9662703,23.839487 44.9662703,29.635445 C44.9662703,37.2518461 50.2385218,38 53.7959299,38 C55.42179,38 57.3663786,37.4710455 57.6874083,37.3509522 C57.8814837,37.278663 57.9942468,37.0746211 57.9942468,36.8538671 L58,32.1651768 C58,31.8593082 57.7449406,31.6117373 57.4580466,31.6117373 C57.1719198,31.6117373 56.4412607,31.7294986 55.6887395,31.7294986 C53.2800578,31.7294986 52.4642511,30.5946366 52.4642511,29.125923 C52.4642511,27.6583754 52.4638675,19.381267 52.4638675,19.381267 L57.3675293,19.381267 C57.6663132,19.381267 57.908332,19.1340847 57.908332,18.8274388 L57.908332,13.4885348 C57.908332,13.1826661 57.6663132,12.9362612 57.3675293,12.9362612" id="Fill-18"></path>
        </g>
    </g>
</svg>