<?xml version="1.0" encoding="UTF-8"?>
<svg width="300px" height="225px" viewBox="0 0 300 225" version="1.1" xmlns="http://www.w3.org/2000/svg" xmlns:xlink="http://www.w3.org/1999/xlink" style="background: none;">
    <!-- Generator: Sketch 49 (51002) - http://www.bohemiancoding.com/sketch -->
    <title>receiptbank-logo</title>
    <desc>Created with Sketch.</desc>
    <defs></defs>
    <g id="receiptbank-logo" stroke="none" stroke-width="1" fill="none" fill-rule="evenodd">
        <g id="receipt_bank_logo" transform="translate(66.000000, 51.000000)" fill="#EF6625" fill-rule="nonzero">
            <path d="M141,17.4506215 C140.028314,20.8941407 139.045899,24.2096981 137.938754,27.5306435 C132.31317,26.0557154 126.670151,24.5807874 121.039203,23.1031654 C121.281956,22.9812649 120.791084,22.855997 120.67239,22.7340966 C120.791084,22.6121962 120.791084,22.3657014 120.67239,22.2431274 C120.791084,21.8747322 120.429636,21.5056634 120.175482,21.2618625 C120.304906,21.2618625 120.429636,21.1365946 120.429636,21.0153676 C120.542295,21.0153676 120.67239,21.1372682 120.791084,21.1372682 C120.915814,21.1372682 121.039203,21.0153676 121.152532,21.0153676 C121.400651,21.0153676 121.64944,21.2618625 121.897559,21.0153676 C121.897559,20.8934672 121.52471,20.8934672 121.400651,20.7715668 C121.281956,20.646299 121.152532,20.5217045 121.152532,20.2779036 C121.039203,20.1560032 120.915143,20.2779036 120.791084,20.2779036 C120.791084,20.0314088 120.542295,20.0314088 120.429636,19.7842405 C120.542295,19.7842405 120.67239,19.9095084 120.791084,19.7842405 C120.67239,19.7842405 120.791084,19.6623401 120.791084,19.5377457 C120.791084,19.2939448 120.542295,19.6623401 120.542295,19.5377457 C120.429636,19.5377457 120.429636,19.4185392 120.429636,19.2939448 C120.429636,19.1720443 120.542295,19.2939448 120.791084,19.2939448 C120.67239,19.0474499 120.67239,18.9255495 120.429636,18.8002817 C120.429636,18.6810751 120.304906,18.5564807 120.175482,18.4345803 C119.932728,18.4345803 119.932728,18.3093125 119.807998,18.3093125 C119.689304,18.4345803 119.689304,18.5564807 119.689304,18.5564807 C119.689304,18.9248761 120.056117,19.1720443 120.175482,19.2939448 C120.056117,19.5377457 119.807998,19.1720443 119.565245,19.2939448 C119.565245,19.5377457 119.689975,19.784914 119.322491,19.9095084 C119.198432,19.7842405 119.322491,19.6623401 119.322491,19.5377457 C119.322491,19.4185392 119.079737,19.2939448 119.079737,19.1720443 C119.079737,19.0474499 118.712924,18.9255495 118.588865,18.6810751 C118.102687,18.6810751 117.854568,18.3093125 117.363026,18.3093125 C117.363026,18.4345803 117.363026,18.6810751 117.244331,18.8002817 C117.120272,19.0474499 117.363026,19.0474499 117.363026,19.1720443 C117.120942,19.1720443 117.244331,19.4192126 117.244331,19.4192126 C117.120272,19.4192126 116.871483,19.4192126 116.747423,19.2939448 C116.385975,19.0474499 116.385975,18.6810751 116.137857,18.8002817 C115.889738,18.8002817 115.889738,18.9255495 115.776408,19.1720443 C115.776408,19.5377457 116.262586,19.4192126 116.262586,19.784914 C116.137857,20.0320823 115.776408,20.0320823 115.640949,20.2785772 C115.40356,20.1566766 115.40356,20.522378 115.030712,20.4004776 C115.155442,20.8941407 115.776408,20.8941407 116.137857,21.262536 C116.013127,21.5063368 116.013127,21.7535052 116.137857,21.8754056 C109.891306,20.2785772 103.768144,18.6817486 97.3968638,17.0822262 C91.6358209,15.6072982 85.8741072,13.8885692 80.0030873,12.4136411 C79.5115445,12.2890467 79.022684,12.1671463 78.7772479,12.1671463 C78.5344942,12.1671463 78.1616458,12.5355415 77.7941622,12.7800159 C67.3845858,18.8009551 56.8509502,24.7040348 46.4353385,30.7256474 C45.9498309,30.4818466 45.2155343,30.2319844 44.5999322,30.4818466 C44.475873,30.603747 44.5999322,30.7256474 44.475873,30.7256474 L43.9896949,30.7256474 C43.7442587,30.7256474 43.7442587,31.0974101 43.3794576,30.9694484 C43.249363,30.9694484 43.5008344,31.0967367 43.3794576,31.2193107 C43.1306685,31.2193107 43.1306685,31.4631115 42.8825499,31.4631115 C42.7672084,31.5883793 42.7672084,31.7069124 42.5211018,31.8321803 C42.2723126,31.8321803 42.0295589,31.5883793 41.6593928,31.5883793 C41.5380161,31.8321803 42.0295589,31.9540807 42.1536182,31.9540807 C42.1536182,32.4450499 42.2723126,32.5696443 42.5204311,32.8161391 C42.1536182,32.8161391 42.1536182,33.0599401 42.1536182,33.1852079 C35.9070676,36.7479337 29.6538111,40.4379477 23.288566,44 C21.6959136,41.0501439 20.224638,38.1002878 18.6346679,35.0285312 C18.3858789,34.781363 17.897689,34.0445724 18.0190658,33.6755036 C18.0190658,33.5536032 18.8774218,33.0599401 19.2449053,32.9380395 C22.1847741,31.3412111 25.0005836,29.7443826 27.8190755,28.1448601 C37.0054948,22.9826119 45.9498309,17.9456316 55.0155439,12.7806895 C55.7498405,12.2897202 56.6081965,11.798751 57.4638698,11.4276618 C57.4638698,11.677524 57.5879291,11.9206515 57.8306829,12.0432254 C58.0734367,12.0432254 58.0734367,11.7994245 58.1974959,11.7994245 C58.4402496,11.677524 58.5676619,11.7994245 58.6917211,11.677524 C58.9371573,11.7994245 59.1805816,12.0432254 59.5473946,12.0432254 C59.6687715,12.2903937 59.9175605,12.4149881 60.0329022,12.5368885 C60.1596438,12.6587889 60.2816912,12.4149881 60.4030681,12.6587889 C60.6458218,12.5368885 60.6458218,12.2903937 60.7705517,12.1678198 C60.8919286,12.1678198 60.8919286,12.2897202 61.0133054,12.2897202 C61.2614239,12.2897202 61.2614239,11.9206515 61.5102131,11.9206515 C61.6228722,11.798751 61.6228722,11.6768506 61.7529668,11.4276618 C61.6228722,11.1838609 61.2614239,11.1838609 61.2614239,10.8147922 C61.1373647,10.8147922 60.891258,10.6895243 60.891258,10.5709913 C60.7698811,10.4457234 61.0133054,10.4457234 61.0133054,10.3238229 C60.5271274,10.3238229 60.5271274,9.70825936 60.5271274,9.70825936 C60.6458218,9.46445846 61.1373647,9.21459623 61.5102131,8.97079533 C63.955186,7.61776771 66.5282418,6.14283965 68.9772383,4.79317945 C72.038484,3.07108309 74.8569758,1.59615503 77.4327139,0 C98.6153268,5.77646483 119.807998,11.6761771 141,17.4506215 Z M60.2810206,12.657442 C60.2810206,12.7793424 60.4023975,12.9039369 60.4023975,13.0258373 C60.4023975,12.9039369 60.5271274,12.7793424 60.6451512,12.657442 L60.2810206,12.657442 Z M116.622694,18.8009551 C116.746753,18.8009551 116.746753,18.926223 116.746753,18.926223 C116.995542,18.926223 117.24366,18.6824222 117.120272,18.4352538 C116.746753,18.1880855 116.509364,18.5571543 116.622694,18.8009551 Z M123.366822,21.7535052 L123.490882,21.7535052 C123.490882,21.6289108 123.490882,21.6289108 123.366822,21.6289108 C123.366822,21.6289108 123.242092,21.7535052 123.366822,21.7535052 Z M124.343873,22.6128697 C124.598026,22.4909693 124.959475,22.4909693 124.959475,22.7347701 C124.711356,22.6128697 124.598026,22.7347701 124.462567,22.8566706 C124.343873,22.7347701 124.343873,22.6128697 124.225178,22.6128697 C124.225178,22.6128697 123.976389,22.6128697 124.100448,22.7347701 C124.100448,22.7347701 124.100448,22.8566706 124.225178,22.9819385 C124.462567,23.1038389 124.598026,23.1038389 124.834745,22.9819385 C124.959475,22.9819385 124.959475,23.1038389 125.083534,23.1038389 C125.207593,22.9819385 125.083534,22.8566706 125.083534,22.6128697 C125.083534,22.4909693 124.958804,22.4909693 124.958804,22.3663748 C125.083534,21.8754056 124.597356,21.9979796 124.597356,21.6289108 C124.100448,21.6289108 124.225178,22.2438009 124.343873,22.6128697 Z M122.259007,21.8754056 C122.383737,21.997306 122.632526,22.1219005 122.507796,22.3663748 C122.632526,22.4916427 122.755914,22.4916427 123.004703,22.6128697 C123.117363,22.6128697 123.242092,22.4909693 123.366152,22.3663748 C123.117363,22.2444744 122.631855,22.2444744 122.507796,21.9979796 C122.507796,21.8760791 122.632526,21.7541787 122.507796,21.7541787 C122.383066,21.7541787 122.383737,21.8754056 122.259007,21.8754056 Z M123.118033,23.1038389 L123.118033,23.3503337 C123.490882,23.3503337 123.490882,23.5941346 123.614941,23.5941346 C123.85233,23.5941346 124.101119,23.7187289 124.101119,23.4722341 C123.976389,23.4722341 123.85233,23.4722341 123.85233,23.2284333 C124.101119,23.2284333 124.225849,23.4722341 124.225849,23.5941346 C124.344543,23.5941346 124.344543,23.4722341 124.463238,23.3503337 C124.225849,23.3503337 124.101789,23.2284333 124.101789,23.1038389 C123.728271,22.9819385 123.490211,23.2284333 123.118033,23.1038389 Z M125.320923,23.8413029 L125.320923,23.7194025 L125.207593,23.7194025 C125.083534,23.8413029 125.320923,23.9658973 125.320923,23.8413029 Z" id="Shape"></path>
            <path d="M120.988825,23.5 C120.890267,23.5 120.604661,23.3932504 120.403836,23.3932504 C120.21202,23.2835519 119.921645,23.2835519 120.019673,23.0700527 C120.506633,22.8541943 120.797008,23.1768023 120.988825,23.5 Z" id="Shape"></path>
            <path d="M163.909835,34.3738742 C164.035864,34.1232834 163.784484,33.8726927 163.784484,33.7480819 C164.155118,33.872008 164.155118,34.3738742 164.651101,34.2472094 C164.651101,35.1235924 165.267695,36.1211627 164.651101,36.6230288 C164.4004,36.8708809 163.784484,36.8708809 163.293243,36.9948069 C161.684004,37.2453977 159.823384,37.3720624 158.464848,37.6205992 C158.956089,41.4958549 159.458171,45.3683721 159.948735,49.2408892 C160.19334,50.6129763 160.19334,51.99191 160.690679,52.8648696 C161.067411,53.4879232 161.684004,53.7385139 162.545201,53.4879232 C163.909158,53.2400711 164.399722,51.9912254 164.15444,50.2411982 C164.15444,49.7420707 164.034509,49.1162785 164.399722,48.8656877 C164.650425,48.7417617 165.267017,48.7417617 165.7691,48.6144123 C166.499525,48.6144123 167.127637,48.2426343 167.6182,48.6144123 C167.868903,48.7417617 167.868903,49.3641306 167.868903,49.7413861 C167.988834,50.2405135 167.988834,50.739641 167.988834,51.1141578 C168.108765,53.9856812 167.252989,56.2382593 165.88361,57.4864203 C164.525074,58.9858567 162.048539,59.859501 159.457494,59.9861657 C157.100212,60.1128304 155.12034,59.3603736 153.887154,58.1122125 C152.89383,57.1119035 152.151886,55.7391318 151.900506,54.2369566 C151.535293,52.6163328 151.409264,50.8663057 151.158563,49.1162785 C150.662577,45.6189629 150.291266,42.2448885 149.800025,38.7475728 C149.429392,38.7475728 148.93273,38.8714989 148.316815,38.8714989 C147.568773,38.9954249 146.581547,39.2467002 146.330166,38.7475728 C146.204815,38.4962974 146.204815,37.8711899 146.079463,37.4959884 C146.079463,36.8701962 145.834182,35.996552 146.205492,35.6220352 C146.330844,35.4953705 146.707576,35.3714445 146.952857,35.3714445 C150.417295,33.872008 152.277915,30.6252831 153.13979,26.4994364 C153.270562,26.000309 153.270562,25.5011815 153.635775,25.3779401 C153.887154,25.2505907 154.87438,25.1266648 155.119662,25.1266648 C155.245014,25.1266648 155.245014,25.2505907 155.490973,25.2505907 C155.621745,25.2505907 155.490973,25 155.621745,25 C156.112987,25 156.602872,25 156.728902,25.2505907 C156.728902,25.3779401 156.483619,25.2505907 156.35217,25.2505907 C156.482942,25.5011815 156.728902,25.6251076 156.968086,25.5011815 C156.968086,25.876383 157.099535,26.2508997 157.099535,26.6261012 C156.854253,26.4994364 156.728224,26.1269737 156.968086,26.000309 C156.854253,25.876383 156.854253,25.7490336 156.602872,25.7490336 C156.482942,25.7490336 156.602872,25.876383 156.602872,26.000309 C156.35217,26.000309 156.237661,26.000309 156.112309,26.1269737 C156.112309,26.3748258 156.35217,26.4987518 156.602872,26.4987518 C156.728902,26.7493426 156.968086,26.9999333 157.225563,27.1245441 C157.470168,29.3736987 157.721548,31.749518 158.08676,33.995934 C159.569971,33.7480819 161.179211,33.4968066 162.669874,33.3728806 C162.669874,33.3728806 162.669874,33.4968066 162.789805,33.4968066 C163.040508,33.6207325 163.161115,33.995934 163.40572,34.2465248 C163.659132,34.1232834 163.785162,34.2472094 163.909835,34.3738742 Z M155.493006,25.5018663 C155.493006,25.6257922 155.623778,25.7497182 155.623778,25.8770676 C155.493006,25.8770676 155.493006,25.8770676 155.366977,26.0009937 C155.493006,26.1276584 155.623778,26.0009937 155.73761,26.0009937 C155.863639,25.6257922 155.73761,25.6257922 155.623778,25.3779401 C155.623778,25.5018663 155.493006,25.5018663 155.493006,25.5018663 Z" id="Shape"></path>
            <path d="M106.217534,30.0114536 C108.444824,29.8898113 109.930814,30.7473562 110.672792,32.094831 C111.049885,33.0767066 111.164505,34.5485119 110.672792,35.5310595 C109.553043,37.6171252 105.839763,38.5990008 103.360851,37.6171252 C102.12716,37.1245071 100.892791,35.7770325 101.007411,33.8132813 C101.132883,32.9557363 101.509297,32.094831 102.00101,31.6055733 C102.618195,30.9940013 103.737944,30.3770528 104.857693,30.133768 C105.223256,30.133768 105.714291,30.0114536 106.217534,30.0114536 Z" id="Shape"></path>
            <path d="M129.92097,61.0945501 C130.163712,62.4556623 130.283401,63.6997773 130.532194,65.0676918 C130.532194,65.6866884 130.780988,66.3056849 131.14342,66.5566846 C131.511902,66.6777632 132.242816,66.7981614 132.865471,66.6777632 C133.477369,66.6777632 134.089266,66.5566846 134.33806,66.7988416 C134.711921,67.1763615 134.711921,67.795358 134.82556,68.2932761 C134.82556,68.7911943 135.074353,69.4108711 134.82556,69.782269 C134.587525,70.1557076 133.726834,70.1557076 133.108886,70.2815476 C129.184004,70.8991837 125.25307,71.3923404 121.317429,71.8902585 C120.706204,71.8902585 119.595376,72.1371769 119.351962,71.8902585 C118.984151,71.7705404 118.984151,71.0257039 118.865134,70.4012656 C118.740065,69.782269 118.615668,69.0381127 118.865134,68.7911943 C119.107875,68.4136744 120.087583,68.4136744 120.575083,68.2932761 C120.949618,68.1667559 121.560843,67.921198 121.685239,67.4232799 C121.934033,66.6777632 121.685239,65.1887703 121.56017,64.1976955 C120.705532,57.8628437 119.963186,51.6585934 119.107875,45.3278229 C118.983479,44.210228 118.740065,42.9701942 118.128168,42.7205549 C117.754305,42.5940348 117.267477,42.5940348 116.893615,42.5940348 C116.406114,42.5940348 115.908528,42.7205549 115.546097,42.5940348 C115.171562,42.3477965 115.171562,41.7294802 115.171562,41.1070825 C115.046493,40.6084842 114.933527,39.8636477 115.046493,39.4915694 C115.171562,39.2453313 115.65839,39.1188111 116.281718,38.9956919 C119.350617,38.6229336 121.93336,38.1277363 124.641173,37.3828998 C125.128673,37.2563796 125.614828,37.0101414 125.983312,37.2563796 C126.719605,37.5060188 126.476191,39.1181308 126.719605,39.9894875 C126.96302,39.7371275 127.088088,39.4915694 127.336881,39.244651 C128.809468,37.5060188 131.142747,36.1394649 134.337387,36.0163458 C136.421871,35.8898256 138.517115,36.5122232 139.865305,37.3828998 C141.337892,38.2508554 142.567066,39.4915694 143.433808,40.8574433 C145.268827,43.5871501 146.378982,47.9330503 145.880724,52.1558313 C145.51224,56.1262522 143.671843,59.3518366 140.851737,61.0931896 C139.492787,61.9618255 137.5327,62.580822 135.448888,62.580822 C133.352973,62.5821825 131.511902,61.9631858 129.92097,61.0945501 Z M130.033936,41.7294802 C129.184004,42.2253576 128.442331,43.2164324 128.198917,44.3333471 C127.830433,46.0719792 128.317934,47.8112915 128.441659,49.3002845 C128.685073,51.0361958 128.810141,53.0217463 129.184004,54.6372593 C129.546434,56.2500516 130.283401,57.3669662 131.392884,57.9886837 C132.497662,58.6076803 133.8398,58.6076803 135.074353,57.8621635 C136.179129,57.117327 136.920803,55.7541741 136.920803,53.7659026 C136.920803,52.897947 136.671337,51.657233 136.54694,50.6634374 C136.421871,49.6696418 136.308905,48.678567 136.178458,47.6840912 C135.810647,44.8278641 135.448215,42.2239972 133.3523,41.3533207 C132.8648,41.1070825 132.129178,41.2268006 131.630247,41.2268006 C131.019695,41.3546811 130.407797,41.4778003 130.033936,41.7294802 Z" id="Shape"></path>
            <path d="M111.316292,40.0229463 C111.933037,39.8997277 112.059236,40.2727875 112.184756,41.1414449 C113.047114,47.2281738 113.796165,53.0711884 114.539109,59.281136 C114.653773,60.0265747 114.790828,61.3942337 115.282053,61.6406709 C115.899477,61.8871082 116.89414,61.5174523 117.385365,61.7666127 C117.763283,62.015773 117.763283,62.632547 117.888125,63.2574902 C117.888125,63.8769872 118.139844,64.6231069 117.888125,64.9954858 C117.637084,65.2480501 116.89414,65.3678648 116.265182,65.3678648 C112.430369,65.8661855 108.961261,66.3597409 105.12102,66.8580616 C104.61826,66.9792379 103.749796,67.1051797 103.383413,66.8580616 C103.011601,66.6123051 103.011601,65.992808 102.88676,65.3678648 C102.88676,64.7429216 102.766667,64.1234246 103.01228,63.7564917 C103.258571,63.3786665 104.001515,63.3786665 104.49274,63.2581709 C104.870658,63.1315485 105.487403,63.0096914 105.739122,62.513413 C105.990163,62.1396725 105.864642,61.1423502 105.739122,60.3996346 C105.373417,56.6724407 104.870658,53.5647438 104.378754,49.5911126 C104.252555,48.8456738 104.252555,48.2234537 104.127035,47.478015 C104.001515,46.7325762 103.875995,45.8639187 103.384091,45.737977 C103.01228,45.4915397 102.515627,45.4915397 102.023723,45.4915397 C101.521642,45.4915397 100.904218,45.6147583 100.652499,45.4915397 C100.286794,45.2423793 100.286794,44.6228823 100.161274,44.0006621 C100.161274,43.378442 99.9095551,42.7596257 100.035075,42.5097846 C100.161274,42.1340018 100.784126,42.0135062 101.275351,41.8875644 C104.378076,41.5145047 107.224332,41.018907 109.955924,40.3966869 C110.447828,40.2721067 110.81896,40.0229463 111.316292,40.0229463 Z" id="Shape"></path>
            <path d="M85.8191728,55.6647665 C86.0732956,57.4883207 86.3267334,59.0730047 86.9500534,60.6576887 C87.5726884,62.1169324 88.7042538,63.5775105 90.7002475,63.7016163 C92.9565288,63.9424883 94.2017987,63.2132 95.1997957,62.2397037 C96.0772384,61.5097482 96.5841139,60.6576887 96.8272772,59.31788 C96.9539961,58.9495661 96.9539961,58.0981739 97.3348377,57.8566346 C97.577316,57.7331962 97.9574727,57.7331962 98.2115955,57.7331962 C98.4540737,57.6124265 98.7075115,57.6124265 99.0821884,57.6124265 C99.5842692,57.4883207 100.461027,57.3682184 100.70967,57.6124265 C101.211066,57.9774043 100.963108,59.31788 100.70967,59.9277332 C100.334308,62.2397037 99.2034276,64.0619234 97.7033499,65.2869675 C95.4532335,67.2312913 91.8242784,68.2087911 87.95353,67.9625812 C87.8261261,67.8384755 87.8261261,67.596269 87.8261261,67.4788356 L87.4445995,67.4788356 C87.4445995,67.2312913 86.9486835,67.1071856 87.1911617,66.8663135 C86.9486835,66.7475457 86.6945607,66.5000013 86.5685268,66.1350236 C86.1870002,66.1350236 85.817803,66.0162558 85.817803,66.3758955 C85.5643652,66.2531243 85.6965637,66.0162558 85.4486057,66.0162558 C85.0739288,66.0162558 84.8225459,65.7700459 84.6924023,65.6459402 C84.447869,65.5218344 84.447869,65.8934844 84.1930613,65.7700459 C83.9423633,65.6459402 83.8183844,65.5225016 83.6944053,65.2863003 C83.3197284,65.0387559 82.8142228,64.7912117 82.4450255,64.6737782 C82.0703486,64.6737782 81.6922469,64.5550104 81.314145,64.6737782 C81.1901661,64.7912117 81.4408639,65.0387559 81.1901661,65.1621945 C80.9394681,65.1621945 80.6908251,64.9146501 80.3161482,65.0380887 C78.5653726,63.4534047 77.310513,61.509081 76.5604742,58.9488989 C75.8131753,56.1505139 75.8131753,52.9838149 76.5604742,50.3055322 C77.310513,47.9902256 78.9373097,45.7983574 80.818229,44.4605506 C82.6929835,42.9993052 85.3212018,42.1479129 88.3213572,42.0244744 C92.0715514,41.7829351 94.9559473,43.3649502 96.7039831,45.1918405 C98.2095405,46.8972941 99.3287766,49.2099318 99.836337,52.1324227 C99.9637409,52.7396068 100.078815,53.4702295 99.7089333,53.8352072 C99.3280916,53.9559769 98.5787378,54.0794153 98.0821366,54.0794153 C93.9545257,54.6865996 89.6967709,55.175683 85.8191728,55.6647665 Z M88.7042538,45.9224632 C88.3234122,45.7990248 87.8274961,45.6782551 87.3199356,45.7990248 C84.6944571,46.0432329 84.9431001,49.5755767 85.4506606,52.1324227 C87.0774572,51.8908834 88.9467321,51.6460081 90.5735286,51.4018 C90.2043315,49.451471 90.2043315,46.7738556 88.7042538,45.9224632 Z" id="Shape"></path>
            <path d="M66.0299702,50.1657622 C64.7864243,49.28515 62.7936145,49.7882583 62.0477597,50.543956 C60.05495,52.4328552 60.175623,57.4701495 60.6814953,60.9981189 C60.9282956,62.7621036 61.421896,64.3984133 62.0477597,65.7814435 C62.7942963,67.421894 63.9198963,68.8049243 66.4035794,68.6765592 C69.0195257,68.4274205 70.3919259,66.4094662 71.0123353,64.0209095 C71.0123353,63.7703906 71.1384625,63.2645216 71.1384625,62.7621036 C71.2645897,62.1313203 71.1384625,61.3756226 71.6320631,61.1202727 C72.0111264,60.9981189 72.6315358,60.9981189 73.2573994,60.8704439 C73.8778089,60.8704439 74.3775452,60.620615 74.7531998,60.998809 C75,61.2513983 75,62.007096 75,62.5108944 C74.8759182,66.2824814 73.3835266,69.1831182 71.2645897,70.8221885 C69.27178,72.206599 66.4035794,73.2121255 63.0445054,72.9616066 C57.9394219,72.7124679 54.4480848,69.939506 52.5786751,66.1610176 C51.5826113,64.1430634 50.7154015,60.7455295 51.088329,57.345235 C51.088329,56.9677313 51.2117291,56.4618624 51.3351292,55.9587541 C51.4639835,55.4556458 51.4639835,54.8248625 51.7114655,54.5722732 C51.8382744,54.4473588 51.8382744,54.4473588 52.0850747,54.3189937 C52.0850747,53.9442505 51.8382744,54.1940792 51.9582657,53.8158854 C52.0850747,53.5660565 52.7048024,53.5660565 52.8309296,53.1878626 C52.9516027,53.1878626 53.0838658,53.1878626 53.1984029,53.0629482 C53.330666,52.9380339 53.4540661,52.6854445 53.5774662,52.5577695 C53.8276753,52.4328552 53.8276753,52.6854445 53.9510754,52.6854445 C54.1978757,52.4328552 54.703748,52.6854445 55.0766754,52.4328552 C55.1973485,52.1830263 54.703748,52.3079407 54.703748,52.0553513 C54.9505482,51.9304369 54.9505482,51.552243 54.824421,51.1747393 C54.824421,50.9186992 54.703748,50.9186992 54.5714849,50.7972355 C54.1985575,50.1664522 54.703748,49.5356689 55.1973485,49.4107546 C55.1973485,49.1581652 55.3234756,49.1581652 55.4475576,49.0332509 C55.820485,48.6550569 56.4436216,48.2775532 57.064031,47.8993592 C58.8066316,46.8910722 61.0523775,46.1353745 63.6649148,46.0104602 C66.9094517,45.8855457 69.6453892,46.8910722 71.2645897,48.4024675 C72.5108628,49.5363592 73.6275998,51.3003439 73.5096538,53.3141573 C73.5096538,56.0871192 71.2645897,57.4701495 68.6520524,57.345235 C66.2801793,57.0926456 64.5403057,55.4563359 64.787106,52.9394141 C64.9125515,51.8020719 65.4068337,51.1740492 66.0299702,50.1657622 Z" id="Shape"></path>
            <path d="M36.591735,49 L36.7159042,49 C37.0918419,49.3643356 37.5940068,49.6087802 37.9699444,49.8498944 C38.223771,50.0936729 37.9699444,50.2175603 38.345196,50.3354532 C38.5969646,50.3354532 38.345196,50.0943391 38.4727953,49.8498944 C38.7211337,49.7293373 39.0998154,49.7293373 39.3481538,49.6087802 L39.4778112,49.6087802 C39.5992362,49.488223 39.3481538,49.3650017 39.5992362,49.3650017 C42.23423,49.9737818 44.1118601,51.3118994 45.6142387,53.3760239 C46.6137663,54.8346986 47.2435305,56.5371517 47.7463815,58.6019423 C47.8678065,59.2107225 48.1250631,60.3077257 47.8678065,60.6693971 C47.6194682,61.0363971 46.8682789,61.0363971 46.2412588,61.1569541 C42.1073167,61.6398488 37.9699444,62.1274058 33.8360022,62.7388502 C34.0843407,64.3154177 34.3388532,65.6568655 34.7113607,66.9916527 C35.2142116,68.2038846 35.7108884,69.4201128 36.7165903,70.1501163 C37.0925279,70.3918966 37.5946928,70.6376733 38.0975437,70.6376733 C39.8544348,71.1205678 41.7286349,70.3918966 42.7315927,69.7857806 C43.9849468,68.9325558 44.7361362,67.4738812 44.9851606,65.7740924 C45.118248,65.4097566 45.118248,65.0454211 45.3665863,64.9275282 C45.6149248,64.6804193 46.4985154,64.6804193 47.1227914,64.5578641 C47.7470675,64.5578641 48.4975707,64.3160837 48.7493393,64.6804193 C49.128021,64.9275282 48.9976776,65.8926513 48.8735084,66.5040957 C48.1250631,71.0040071 45.1175619,73.679576 40.8560206,74.6440331 C38.0968577,75.2554775 34.9651873,75.0150293 32.5840202,74.4082473 C30.203539,73.679576 28.4473339,72.3434567 27.0663805,70.6383393 C25.0666391,68.2045507 23.6863717,64.6804193 24.0616233,60.1811741 C24.4341309,56.1728161 26.188278,53.3760239 28.9494988,51.4324565 C30.4518773,50.3354532 32.4536768,49.488223 34.837588,49.1212232 C35.2128397,49.1212232 35.5887773,49.000666 35.966773,49.000666 L36.0909422,49.000666 C36.2178555,49.1212232 36.2178555,49.1212232 36.3392806,49.1212232 C36.4668799,49.1212232 36.4668799,49 36.591735,49 Z M37.4725817,49.8498944 C37.5940068,49.9737818 37.5940068,50.0936729 37.8478333,49.9737818 C37.8478333,49.8498944 37.5940068,49.7293373 37.4725817,49.8498944 Z M36.7152182,53.0110222 C36.3399666,52.7672437 35.8432898,52.7672437 35.3342647,52.8904651 C32.7047592,53.1315794 32.9592718,56.6577088 33.4593787,59.0894993 C35.0859264,58.8450547 36.9663007,58.7244977 38.5962785,58.4807192 C38.2230849,56.4139303 38.2230849,53.7410257 36.7152182,53.0110222 Z" id="Shape"></path>
            <path d="M14.6836941,57.8607389 C13.5830509,58.2285585 13.4620937,59.8255817 13.3377951,61.1711158 C13.2195111,64.4909066 13.7040079,67.0609372 14.0728939,69.8871639 C14.1971923,70.8668956 14.3148082,73.3253027 15.0492386,73.6877428 C15.5364086,73.9372147 16.0262516,73.9372147 16.6337105,73.9372147 C17.2471837,73.8121425 17.8553109,73.6877428 18.345154,73.8121425 C18.7080255,74.0616144 18.7080255,74.6721815 18.8349969,75.2840936 C18.8349969,75.7716059 19.0769113,76.7560446 18.8349969,77.1252091 C18.5870683,77.2502812 17.7376951,77.3679567 17.247852,77.4930288 C13.3384634,77.9852482 8.94591446,78.4781399 5.16617053,78.9649798 C4.92158313,79.0900519 5.04187202,78.8399077 5.04187202,78.8399077 C4.92091486,78.7215599 4.79995772,78.7215599 4.67031302,78.8399077 C4.67031302,78.4774675 4.43107181,78.4774675 4.43107181,78.2293406 C4.30476848,77.9852482 4.18915751,77.9852482 3.94189703,77.8601761 C3.94189703,77.6174285 4.18982578,77.7418282 4.06285418,77.6174285 C3.69730964,77.2496088 3.21281276,77.2496088 3.21281276,76.7560446 C3.08650943,76.5132971 2.72029662,76.7560446 2.72029662,76.5132971 C2.59666638,75.5335654 3.57568421,75.7709335 4.43174008,75.5335654 C5.1668388,75.2840936 5.77429764,75.0346218 5.77429764,74.0616144 C5.77429764,73.4497023 5.6506674,72.7127182 5.52904199,71.9710269 C5.04187202,68.0467208 4.67098129,64.2407623 4.06285418,60.1907117 C3.94189703,59.3326899 3.82093988,58.3502684 3.21281276,58.1034864 C2.35475208,57.7383565 1.13315166,58.2285585 0.648654787,57.8600664 C0.283110238,57.7383565 0.283110238,57.1237546 0.153465555,56.509153 C0.153465555,56.0189509 -0.0884487496,55.2799494 0.0351814896,54.9148194 C0.153465555,54.6680374 0.648654787,54.5436376 1.2567819,54.4219277 C4.30476848,54.0541081 6.86825819,53.563906 9.683018,52.8275943 C10.0458895,52.7058842 10.6540166,52.4624644 11.0222342,52.5841743 C11.3851057,52.7058842 11.3851057,53.5645784 11.5120773,54.1785077 C11.6303613,54.9148194 11.7539916,55.4050215 11.7539916,56.1406608 C11.8776218,56.1406608 11.9959058,55.8945512 11.9959058,55.7728412 C12.6093791,54.9148194 13.0965491,54.1785077 13.9492637,53.442196 C14.9229353,52.7058842 15.9026214,52.0912825 17.4924395,52.0912825 C17.7376951,51.9695725 17.8553109,51.9695725 18.1005666,52.0912825 C20.911985,52.2156822 22.8626697,54.1785077 22.9809537,56.8769726 C23.104584,58.102814 22.6180823,59.3320175 21.7620264,60.1900391 C20.4194689,61.5409527 17.1242218,62.0338444 15.6607071,60.561221 C15.0492386,59.9472917 14.8073243,59.2116523 14.6836941,57.8607389 Z" id="Shape"></path>
            <path d="M129.187659,78.1960908 C129.187659,78.3145145 129.064382,78.1960908 128.946438,78.1960908 C128.946438,78.4389937 129.065049,78.5587631 128.946438,78.8083945 C128.946438,79.0512975 129.434878,79.0512975 129.311602,79.2948732 C129.065049,79.669657 128.705882,79.4200254 128.340717,79.1764497 C128.211443,79.0512975 128.099496,78.8083945 127.852276,78.8083945 C127.728999,78.9322011 127.976219,79.1764497 127.852276,79.2948732 C127.976219,79.5445048 128.099496,79.669657 128.099496,80.0323292 C128.099496,80.2819606 127.852276,80.0323292 127.728999,80.0323292 C127.852276,80.2819606 128.099496,80.5248636 128.581939,80.5248636 C128.705882,80.6500158 128.946438,80.7691123 129.065049,81.0173981 C129.311602,81.1425502 129.435545,81.2670295 129.682098,81.3867989 C130.165208,85.8014415 130.771594,90.1023704 131.383313,94.5230688 C131.74781,94.0305343 132.106978,93.4175578 132.60075,92.805254 C133.45369,91.6997431 134.295967,90.7193842 135.036292,89.4907396 C135.272183,89.1213387 136.13112,88.1355971 135.889898,87.398814 C135.889898,86.9109896 135.036292,86.6627038 134.430572,86.6627038 C133.812858,86.5429345 133.207136,86.6627038 132.84797,86.3000316 C132.60075,86.0504001 132.713365,85.4380964 132.60075,85.0633126 C132.60075,84.7006404 132.477473,84.2141617 132.60075,83.7148987 C132.84797,83.3468437 133.45369,83.3468437 134.184019,83.2270743 C137.349224,82.8590192 140.75032,82.3664848 143.804245,82.0038126 C144.040135,82.1222362 143.557025,82.2420054 143.557025,82.3664848 C143.674971,82.7399228 144.163412,82.7399228 143.916193,83.2270743 C144.040135,83.4767058 144.286688,83.5964751 144.645856,83.5964751 C144.893075,83.9645303 145.381517,84.2141617 145.86396,84.4516818 C145.987903,84.4516818 145.86396,84.2134889 146.105182,84.2134889 C146.229125,84.2134889 146.105182,84.3319125 146.229125,84.4516818 C146.229125,84.576834 146.59962,84.3319125 146.475678,84.576834 C146.475678,85.0633126 146.229125,84.576834 146.105182,84.8197368 C145.86396,84.944889 146.351735,84.944889 146.229125,85.0626398 C145.746014,85.3122713 145.257573,85.3122713 144.77513,85.4374235 C143.433749,85.8000957 142.456866,86.5429345 141.603927,87.5232934 C140.51443,88.7532837 139.538214,90.1016976 138.561998,91.4568401 C140.99754,94.2794931 143.434415,97.3511045 145.987903,100.297564 C146.723563,101.154116 147.699113,102.383434 148.911887,102.627682 C149.400328,102.752835 150.247936,102.627682 150.495156,102.995738 C150.731046,103.12089 150.731046,103.733193 150.865651,104.225728 C150.977599,104.963184 151.101542,105.698621 150.865651,106.068022 C150.6131,106.191828 149.888768,106.310925 149.282382,106.430694 C145.988569,106.804132 142.828029,107.166804 139.415604,107.666067 C138.685941,107.784491 137.585782,108.153892 137.349891,107.540915 C137.221283,107.166132 137.221283,106.67898 137.102672,106.310925 C136.979396,105.573469 136.743504,104.718262 137.221283,104.468631 C137.714389,104.225728 138.320776,104.344824 138.803887,103.982152 C138.079553,102.752162 136.980062,101.771803 136.131787,100.784715 C135.273517,99.8043567 134.296634,98.6988456 133.454356,97.7137768 C132.966582,98.2063112 132.47814,98.8239978 131.989699,99.4369745 C132.107645,100.785388 132.230922,102.135148 132.47814,103.363793 C132.601416,103.857673 132.714031,104.345497 132.965915,104.469304 C133.45369,104.963184 135.036292,104.345497 135.39546,105.081607 C135.519403,105.331239 135.519403,105.943543 135.519403,106.311598 C135.643345,107.049054 135.890565,107.66674 135.519403,108.029412 C135.27285,108.277698 134.430572,108.277698 133.812858,108.40285 C130.288484,108.890675 126.999336,109.258057 123.463635,109.75261 C122.733306,109.877762 121.645142,110.240435 121.280643,109.75261 C121.039421,109.502979 121.039421,109.015154 120.915478,108.52262 C120.915478,107.785164 120.544983,107.049726 120.915478,106.680326 C121.151369,106.43204 121.886364,106.43204 122.374138,106.312271 C123.227744,106.069368 123.833465,105.819736 123.833465,104.719608 C123.833465,103.733866 123.597574,102.753508 123.462969,101.648669 C122.732639,95.879557 121.885697,89.8601404 121.150037,83.8413967 C121.038088,82.7412686 120.914146,81.2683753 120.420374,80.8949373 C119.455486,80.2826336 117.872217,81.0187437 117.378445,80.4071128 C117.255168,80.1574814 117.255168,79.669657 117.142554,79.1771225 C117.018611,78.4396667 116.896001,77.82198 117.142554,77.4593078 C117.378445,77.2096762 117.989496,77.0858698 118.478603,77.0858698 C121.520532,76.7231975 124.315908,76.1041653 126.875393,75.3680551 C127.239892,75.2482858 127.728333,75 128.098829,75 C128.945771,75 128.945771,75.8605895 129.064382,76.5980454 C129.065049,77.2090034 129.187659,77.5784042 129.187659,78.1960908 Z M128.340717,78.8083945 C128.581939,78.8083945 128.581939,78.6832423 128.581939,78.4389937 L128.340717,78.4389937 C128.457996,78.5587631 128.340717,78.6832423 128.340717,78.8083945 Z M127.728999,78.8083945 C127.728999,78.5587631 127.48178,78.5587631 127.369831,78.5587631 C127.48178,78.6832423 127.48178,78.8083945 127.728999,78.8083945 Z" id="Shape"></path>
            <path d="M32.8720896,98.046853 C32.8720896,98.046853 32.6241043,98.1711896 32.6241043,98.046853 C32.5057933,97.9238532 32.6241043,97.9238532 32.7484312,97.9238532 C32.7484312,97.8048645 32.7484312,97.6811963 32.6241043,97.4392079 C32.9904005,97.4392079 33.1167326,97.1912031 33.2377174,97.3148713 C33.3587021,97.0722144 33.4830289,96.9478777 33.7249984,96.8302258 C33.9669678,96.9478777 34.0939683,96.8302258 34.4595961,96.8302258 C34.5779072,96.7058892 34.3352692,96.4578844 34.7015655,96.4578844 C34.7015655,96.2165645 34.3352692,96.2165645 34.2142846,96.0975757 C34.0932998,95.8509079 33.9662993,95.3662625 34.2142846,95.2425943 C34.0932998,94.9945896 33.8453146,94.8769377 33.5979978,94.8769377 C33.4830289,94.6342808 33.2377174,94.5099442 33.1167326,94.386276 C33.1167326,94.0206194 32.6241043,94.0206194 32.6241043,93.5312947 C32.2584765,93.5312947 32.1368233,93.5312947 32.013165,93.294654 C31.7711955,92.5620039 31.7711955,91.8300222 31.1629299,91.5826858 C30.428332,91.3346812 29.2064533,91.8293536 28.5988561,91.5826858 C28.2332283,91.4583492 28.2332283,90.8500357 28.1089015,89.9950544 C27.9905904,89.2624041 27.8615846,88.5304225 28.3508708,88.2884341 C28.5988561,88.1640975 29.2064533,88.0457771 29.696408,88.0457771 C32.6234358,87.6747727 35.3091628,87.0664591 38.0002371,86.333809 C38.6111765,86.2108093 39.3404269,85.7268323 39.703381,86.2108093 C39.8297131,86.4574771 39.9486925,86.9421225 39.9486925,87.4314472 C40.3203361,90.3653903 40.6832902,93.2939856 41.1732449,96.215896 C43.0000472,94.5092757 45.4471468,92.9216442 49.3567577,93.1649695 C52.7737402,93.2939856 55.3384824,95.2419258 57.0469737,97.3142027 C57.8998825,98.5361777 58.5108219,99.8758045 59.0001081,101.339099 C59.7293585,103.417393 60.0983284,105.48967 59.9773436,108.292591 C59.8556906,111.710511 58.5108219,114.272113 56.6833511,116.096385 C55.706784,117.07704 54.6032162,117.808353 53.2576791,118.29233 C51.4282031,119.02498 49.4744003,119.519653 46.9123318,119.395316 C45.5667946,119.27098 44.2212575,118.905991 43.2500377,118.415998 C42.1498121,117.931353 41.1725764,117.323039 40.3196677,116.591726 C39.8297131,117.559011 39.3397584,118.664003 38.8531459,119.761641 C38.7321611,120.127298 38.4841759,120.611275 38.2422064,120.735611 C38.0002371,120.859948 37.5102824,120.859948 37.1386388,120.859948 C36.5303731,120.982948 36.0464343,121.101268 35.6808064,120.859948 C35.4328212,120.611943 35.4328212,120.00363 35.3091628,119.518984 C34.4589276,112.560145 33.4823604,105.122008 32.6234358,98.2921838 C32.6234358,98.5348407 32.9897321,98.5348407 33.2370489,98.2921838 C33.1167326,98.2948577 32.9897321,98.170521 32.8720896,98.046853 Z M34.7015655,95.974576 C34.5772387,95.974576 34.5772387,95.8515764 34.4595961,95.8515764 C34.4595961,95.974576 34.5772387,96.0989126 34.7015655,95.974576 Z M33.1167326,97.9238532 C33.3587021,97.9238532 33.4830289,97.8048645 33.4830289,97.6811963 C33.3587021,97.5635445 33.2377174,97.4398763 32.9904005,97.5635445 C32.9897321,97.6811963 33.1167326,97.8055329 33.1167326,97.9238532 Z M45.3248253,97.8055329 C41.5415465,98.046853 42.1498121,103.53705 42.518782,107.079306 C42.8817361,109.63556 43.3716908,112.687155 44.5875537,114.15045 C44.8382127,114.516107 45.3248253,114.8831 45.6911215,115.129768 C46.6703624,115.614414 48.3768483,115.496762 49.3560892,115.006768 C51.4282031,113.665805 50.9435959,109.027247 50.5772996,106.22232 C50.3299828,104.882693 50.0853396,103.419398 49.8427018,102.314407 C49.3554209,100.609123 48.6234967,98.4185258 46.7886734,97.9238532 C46.4230456,97.8055329 45.6911215,97.8055329 45.3248253,97.8055329 Z" id="Shape"></path>
            <path d="M89.9928257,113.501204 C89.9928257,113.24631 90.1177337,113.24631 89.9928257,112.875992 C89.8739616,112.875992 89.8739616,112.493307 89.8739616,112.373074 C89.7550976,111.870156 89.6308611,110.989362 89.8739616,110.619044 C90.1170621,110.36415 90.9773157,110.237733 91.3500251,110.11063 C91.8368977,109.988335 92.3291427,109.867415 92.5715717,109.485417 C92.8207161,108.987309 92.6964796,108.108576 92.6964796,107.355573 C92.1988623,103.46689 91.8368977,100.336019 91.2204163,96.4473352 C91.1015521,95.3185178 91.1015521,93.0615699 90.3662066,92.5586518 C89.6308611,92.0605431 88.1608416,92.5586518 87.5443601,92.1828374 C87.1763516,92.0605431 87.1763516,91.4298344 87.1763516,90.8046221 C87.0514435,90.3065133 86.9272072,89.5555715 87.0514435,89.1728865 C87.1763516,88.9248627 87.6625527,88.8025685 88.16017,88.6747778 C91.3500251,88.2989633 93.9180262,87.7960453 96.6223518,87.0430423 C96.9843164,86.9152516 97.6061702,86.6672279 97.9681349,86.7950185 C98.4550074,86.9159386 98.4550074,87.7960453 98.5792439,88.4198835 C98.5792439,89.0519664 98.7041519,89.6758046 98.7041519,90.3065133 C100.423987,87.9231489 102.753589,86.1643098 106.554553,86.0420155 C109.009063,85.7939917 110.853135,86.6672279 112.075353,88.0495654 C114.529862,90.6768314 114.891827,95.4463084 115.390787,99.9602041 C115.63926,101.59194 115.752752,103.46689 116.126133,105.098625 C116.250369,105.723837 116.374606,106.34905 116.861478,106.60257 C117.109951,106.730361 117.596824,106.730361 118.083025,106.60257 C118.580642,106.60257 119.19108,106.60257 119.434852,106.730361 C119.678624,106.858151 119.802861,107.483364 119.802861,108.234305 C119.927097,108.859518 120.176241,109.612521 119.802861,109.867415 C119.677953,110.237733 118.948651,110.237733 118.207262,110.36415 C114.530534,110.862258 110.967969,111.372047 107.29057,111.869469 C106.680133,111.869469 105.944787,111.997259 105.570735,111.869469 C105.20877,111.614574 105.20877,110.989362 105.20877,110.36415 C105.084534,109.867415 104.960297,109.235332 105.084534,108.732414 C105.451871,108.108576 107.04747,108.362096 107.289899,107.610467 C107.539043,106.979759 107.289899,106.105148 107.289899,105.47444 C106.803698,102.090048 106.317497,98.5826759 105.944116,95.3192048 C105.694971,93.6874693 105.570063,91.557625 104.22428,91.0602034 C103.115554,90.8053091 101.644863,91.6854157 101.276854,92.309254 C100.049263,94.0632837 100.298408,97.9519671 100.666417,100.584729 C100.796025,102.465863 101.15799,104.601203 101.407134,106.730361 C101.520626,107.610467 101.644863,108.362096 102.143151,108.605311 C102.753589,108.860205 103.738079,108.362096 104.224952,108.733101 C104.473425,108.987996 104.473425,109.486104 104.592289,110.23842 C104.722569,110.862258 104.835389,111.615261 104.592289,111.997946 C104.34986,112.24597 103.613843,112.24597 102.997361,112.373761 C99.315261,112.876679 95.8870063,113.374788 92.3298142,113.750602 C91.7126612,113.878393 90.8530792,114 90.6099787,114 C90.3655351,113.877019 90.2419702,113.628308 89.9928257,113.501204 Z M90.2419702,113.373414 L90.1170621,113.373414 C90.1170621,113.501204 90.2419702,113.501204 90.2419702,113.373414 Z" id="Shape"></path>
            <path d="M85.287066,109.386873 C86.1364552,109.261892 85.5325926,108.276826 86.1364552,107.914649 C86.2592185,107.791012 86.7396543,107.791012 87.1092713,107.666703 C87.9526883,107.541722 88.7967689,107.304527 88.9201957,108.276826 C89.1663859,109.511854 88.7967689,110.982734 88.4390964,111.837444 C88.3156695,111.837444 88.1935698,111.837444 88.1935698,111.717838 C88.0701429,111.961753 87.9533519,111.961753 87.7124705,111.961753 C87.8358972,112.329305 88.3156695,112.329305 88.0701429,112.573219 C87.9526883,112.696857 87.7124705,112.573219 87.5890436,112.329305 C87.4662802,112.454286 87.3435169,112.573219 87.2260624,112.573219 C86.9858444,112.329305 86.7396543,112.204324 86.4934641,111.961753 C86.3700372,111.961753 86.2585549,112.080014 86.2585549,112.204324 C86.1357916,112.079342 86.0130283,111.961753 85.8896015,111.836772 C85.6493835,111.836772 85.7668382,111.594201 85.531929,111.594201 C85.2864024,111.717838 85.531929,111.836772 85.531929,112.080014 C85.3978847,112.696857 84.9227576,112.454286 84.4370132,112.204996 C84.3195586,112.080014 84.3195586,111.837444 84.0760227,111.837444 C83.8278418,112.080014 84.3195586,112.204996 84.4370132,112.573891 C84.5604401,112.573891 84.7946857,112.573891 84.7946857,112.697529 C84.7946857,112.941443 84.5597765,112.941443 84.4370132,113.066424 C84.1914866,113.191406 84.3195586,112.941443 84.0760227,112.941443 C84.0760227,113.190734 84.5597765,113.433305 84.7946857,113.433305 C84.9227576,113.675875 84.6825398,113.55291 84.6825398,113.800856 C84.7946857,114.044771 85.1636391,114.044771 85.2864024,114.288014 C85.531929,114.169752 85.7675018,114.288014 85.7675018,114.412995 C85.5325926,114.780547 85.0402123,114.780547 84.5604401,114.904856 C83.8278418,115.024462 82.9844248,115.273752 81.8888455,115.148771 C79.8343853,115.02379 78.3758247,114.044771 77.4030086,112.697529 L77.285554,112.573891 C77.1627907,112.573891 76.679037,113.190734 76.5589281,113.308995 C75.8296478,114.169752 74.8574953,114.904856 74.0127512,115.516323 C72.5568449,116.370361 70.500394,117.106808 68.074326,116.987203 C66.2554386,116.868941 64.8048411,116.133165 63.832025,115.148771 C62.7364456,114.044771 62.012474,112.573891 62.132583,110.609135 C62.132583,108.775406 62.9819722,107.304527 63.832025,106.194479 C64.8048411,105.097199 65.8864851,104.111461 67.1015099,103.377029 C69.5275779,101.656187 72.3133092,100.308944 75.1056762,99.0866825 C74.8568317,96.5118029 74.6166138,94.0551849 71.5873467,94.1794941 C70.7406118,94.1794941 69.8912226,94.4220649 69.1645967,94.7963363 C68.9243789,94.9159419 68.5554253,95.0402511 68.5554253,95.1585127 C68.5554253,95.1585127 69.0444877,95.5327841 69.1645967,95.6503738 C69.6483505,96.2672161 70.1314406,97.2462348 70.0139859,98.3502347 C69.8912226,100.308272 67.9515627,101.656187 65.5254948,101.418319 C63.3456169,101.293338 62.1332466,99.8224584 62.0131376,97.6151307 C61.8930286,96.142907 62.6170002,94.91527 63.3462805,94.054513 C65.4087037,91.4796332 69.5282415,90.2566999 73.5296611,90.0087535 C77.5257719,89.8891478 81.044765,90.9931476 82.5006712,93.4497657 C82.9844248,94.1794941 83.2246428,95.1585127 83.467515,96.2672161 C83.8285054,98.2252536 84.0766863,100.557562 84.3202221,102.889199 C84.5604401,104.479685 84.7953493,106.193807 85.0408758,107.914649 C85.0408758,108.401135 85.0408758,109.013274 85.287066,109.386873 Z M74.746013,103.376357 C73.8906515,103.868218 73.0445802,104.360751 72.3146363,104.847237 C71.468565,105.583684 70.3723221,106.687012 70.1321041,107.791012 C70.0146495,108.775406 70.2608397,109.749049 70.6211666,110.246286 C70.8640387,110.608463 71.3451382,110.982734 71.8368549,111.100324 C73.1613712,111.46922 74.4971684,110.608463 75.1063398,109.873359 C76.1932925,108.276154 75.9530747,105.096527 75.5900935,102.888527 C75.4699846,102.76489 74.9835765,103.132442 74.746013,103.376357 Z M84.7953493,111.469892 L84.7953493,111.717838 C84.9234212,111.594201 85.0408758,111.594201 85.0408758,111.34491 C84.9240848,111.34491 84.7953493,111.34491 84.7953493,111.469892 Z M85.1643027,114.412323 C85.1643027,114.412323 85.1643027,114.537304 85.2877296,114.537304 C85.2877296,114.412323 85.2877296,114.412323 85.1643027,114.288014 L85.1643027,114.412323 Z" id="Shape"></path>
        </g>
    </g>
</svg>
